<?xml version="1.0" encoding="utf-8" standalone="no"?>
<!DOCTYPE svg PUBLIC "-//W3C//DTD SVG 1.1//EN"
  "http://www.w3.org/Graphics/SVG/1.1/DTD/svg11.dtd">
<svg xmlns:xlink="http://www.w3.org/1999/xlink" width="835.723125pt" height="421.897625pt" viewBox="0 0 835.723125 421.897625" xmlns="http://www.w3.org/2000/svg" version="1.1">
 <metadata>
  <rdf:RDF xmlns:dc="http://purl.org/dc/elements/1.1/" xmlns:cc="http://creativecommons.org/ns#" xmlns:rdf="http://www.w3.org/1999/02/22-rdf-syntax-ns#">
   <cc:Work>
    <dc:type rdf:resource="http://purl.org/dc/dcmitype/StillImage"/>
    <dc:date>2022-01-21T14:48:47.197782</dc:date>
    <dc:format>image/svg+xml</dc:format>
    <dc:creator>
     <cc:Agent>
      <dc:title>Matplotlib v3.5.1, https://matplotlib.org/</dc:title>
     </cc:Agent>
    </dc:creator>
   </cc:Work>
  </rdf:RDF>
 </metadata>
 <defs>
  <style type="text/css">*{stroke-linejoin: round; stroke-linecap: butt}</style>
 </defs>
 <g id="figure_1">
  <g id="patch_1">
   <path d="M 0 421.897625 
L 835.723125 421.897625 
L 835.723125 0 
L 0 0 
z
" style="fill: #ffffff"/>
  </g>
  <g id="axes_1">
   <g id="patch_2">
    <path d="M 53.328125 398.0195 
L 653.478125 398.0195 
L 653.478125 35.7555 
L 53.328125 35.7555 
z
" style="fill: #ffffff"/>
   </g>
   <g id="patch_3">
    <path d="M 80.60767 398.0195 
L 90.773961 398.0195 
L 90.773961 87.253814 
L 80.60767 87.253814 
z
" clip-path="url(#pd1be2a62a2)" style="fill: #66c2a5"/>
   </g>
   <g id="patch_4">
    <path d="M 199.21439 398.0195 
L 209.38068 398.0195 
L 209.38068 53.006167 
L 199.21439 53.006167 
z
" clip-path="url(#pd1be2a62a2)" style="fill: #66c2a5"/>
   </g>
   <g id="patch_5">
    <path d="M 0 0 
z
" clip-path="url(#pd1be2a62a2)" style="fill: #66c2a5"/>
   </g>
   <g id="patch_6">
    <path d="M 0 0 
z
" clip-path="url(#pd1be2a62a2)" style="fill: #66c2a5"/>
   </g>
   <g id="patch_7">
    <path d="M 0 0 
z
" clip-path="url(#pd1be2a62a2)" style="fill: #66c2a5"/>
   </g>
   <g id="patch_8">
    <path d="M 90.773961 398.0195 
L 100.940251 398.0195 
L 100.940251 386.349931 
L 90.773961 386.349931 
z
" clip-path="url(#pd1be2a62a2)" style="fill: #fc8d62"/>
   </g>
   <g id="patch_9">
    <path d="M 209.38068 398.0195 
L 219.54697 398.0195 
L 219.54697 386.349931 
L 209.38068 386.349931 
z
" clip-path="url(#pd1be2a62a2)" style="fill: #fc8d62"/>
   </g>
   <g id="patch_10">
    <path d="M 0 0 
z
" clip-path="url(#pd1be2a62a2)" style="fill: #fc8d62"/>
   </g>
   <g id="patch_11">
    <path d="M 0 0 
z
" clip-path="url(#pd1be2a62a2)" style="fill: #fc8d62"/>
   </g>
   <g id="patch_12">
    <path d="M 0 0 
z
" clip-path="url(#pd1be2a62a2)" style="fill: #fc8d62"/>
   </g>
   <g id="patch_13">
    <path d="M 100.940251 398.0195 
L 111.106541 398.0195 
L 111.106541 396.497382 
L 100.940251 396.497382 
z
" clip-path="url(#pd1be2a62a2)" style="fill: #8da0cb"/>
   </g>
   <g id="patch_14">
    <path d="M 219.54697 398.0195 
L 229.713261 398.0195 
L 229.713261 396.751069 
L 219.54697 396.751069 
z
" clip-path="url(#pd1be2a62a2)" style="fill: #8da0cb"/>
   </g>
   <g id="patch_15">
    <path d="M 0 0 
z
" clip-path="url(#pd1be2a62a2)" style="fill: #8da0cb"/>
   </g>
   <g id="patch_16">
    <path d="M 0 0 
z
" clip-path="url(#pd1be2a62a2)" style="fill: #8da0cb"/>
   </g>
   <g id="patch_17">
    <path d="M 0 0 
z
" clip-path="url(#pd1be2a62a2)" style="fill: #8da0cb"/>
   </g>
   <g id="patch_18">
    <path d="M 111.106541 398.0195 
L 121.272831 398.0195 
L 121.272831 330.031578 
L 111.106541 330.031578 
z
" clip-path="url(#pd1be2a62a2)" style="fill: #a6d854"/>
   </g>
   <g id="patch_19">
    <path d="M 229.713261 398.0195 
L 239.879551 398.0195 
L 239.879551 330.031578 
L 229.713261 330.031578 
z
" clip-path="url(#pd1be2a62a2)" style="fill: #a6d854"/>
   </g>
   <g id="patch_20">
    <path d="M 348.31998 398.0195 
L 358.48627 398.0195 
L 358.48627 328.763147 
L 348.31998 328.763147 
z
" clip-path="url(#pd1be2a62a2)" style="fill: #a6d854"/>
   </g>
   <g id="patch_21">
    <path d="M 466.926699 398.0195 
L 477.092989 398.0195 
L 477.092989 194.309422 
L 466.926699 194.309422 
z
" clip-path="url(#pd1be2a62a2)" style="fill: #a6d854"/>
   </g>
   <g id="patch_22">
    <path d="M 585.533419 398.0195 
L 595.699709 398.0195 
L 595.699709 194.563108 
L 585.533419 194.563108 
z
" clip-path="url(#pd1be2a62a2)" style="fill: #a6d854"/>
   </g>
   <g id="patch_23">
    <path d="M 121.272831 398.0195 
L 131.439122 398.0195 
L 131.439122 333.836873 
L 121.272831 333.836873 
z
" clip-path="url(#pd1be2a62a2)" style="fill: #ffd92f"/>
   </g>
   <g id="patch_24">
    <path d="M 239.879551 398.0195 
L 250.045841 398.0195 
L 250.045841 332.822127 
L 239.879551 332.822127 
z
" clip-path="url(#pd1be2a62a2)" style="fill: #ffd92f"/>
   </g>
   <g id="patch_25">
    <path d="M 358.48627 398.0195 
L 368.65256 398.0195 
L 368.65256 331.807382 
L 358.48627 331.807382 
z
" clip-path="url(#pd1be2a62a2)" style="fill: #ffd92f"/>
   </g>
   <g id="patch_26">
    <path d="M 477.092989 398.0195 
L 487.25928 398.0195 
L 487.25928 270.66899 
L 477.092989 270.66899 
z
" clip-path="url(#pd1be2a62a2)" style="fill: #ffd92f"/>
   </g>
   <g id="patch_27">
    <path d="M 595.699709 398.0195 
L 605.865999 398.0195 
L 605.865999 269.907931 
L 595.699709 269.907931 
z
" clip-path="url(#pd1be2a62a2)" style="fill: #ffd92f"/>
   </g>
   <g id="patch_28">
    <path d="M 131.439122 398.0195 
L 141.605412 398.0195 
L 141.605412 384.320441 
L 131.439122 384.320441 
z
" clip-path="url(#pd1be2a62a2)" style="fill: #e5c494"/>
   </g>
   <g id="patch_29">
    <path d="M 250.045841 398.0195 
L 260.212131 398.0195 
L 260.212131 384.320441 
L 250.045841 384.320441 
z
" clip-path="url(#pd1be2a62a2)" style="fill: #e5c494"/>
   </g>
   <g id="patch_30">
    <path d="M 368.65256 398.0195 
L 378.818851 398.0195 
L 378.818851 383.305696 
L 368.65256 383.305696 
z
" clip-path="url(#pd1be2a62a2)" style="fill: #e5c494"/>
   </g>
   <g id="patch_31">
    <path d="M 487.25928 398.0195 
L 497.42557 398.0195 
L 497.42557 249.613029 
L 487.25928 249.613029 
z
" clip-path="url(#pd1be2a62a2)" style="fill: #e5c494"/>
   </g>
   <g id="patch_32">
    <path d="M 605.865999 398.0195 
L 616.032289 398.0195 
L 616.032289 248.851971 
L 605.865999 248.851971 
z
" clip-path="url(#pd1be2a62a2)" style="fill: #e5c494"/>
   </g>
   <g id="patch_33">
    <path d="M 141.605412 398.0195 
L 151.771702 398.0195 
L 151.771702 387.618363 
L 141.605412 387.618363 
z
" clip-path="url(#pd1be2a62a2)" style="fill: #b3b3b3"/>
   </g>
   <g id="patch_34">
    <path d="M 260.212131 398.0195 
L 270.378421 398.0195 
L 270.378421 386.096245 
L 260.212131 386.096245 
z
" clip-path="url(#pd1be2a62a2)" style="fill: #b3b3b3"/>
   </g>
   <g id="patch_35">
    <path d="M 378.818851 398.0195 
L 388.985141 398.0195 
L 388.985141 385.0815 
L 378.818851 385.0815 
z
" clip-path="url(#pd1be2a62a2)" style="fill: #b3b3b3"/>
   </g>
   <g id="patch_36">
    <path d="M 497.42557 398.0195 
L 507.59186 398.0195 
L 507.59186 323.182049 
L 497.42557 323.182049 
z
" clip-path="url(#pd1be2a62a2)" style="fill: #b3b3b3"/>
   </g>
   <g id="patch_37">
    <path d="M 616.032289 398.0195 
L 626.19858 398.0195 
L 626.19858 323.182049 
L 616.032289 323.182049 
z
" clip-path="url(#pd1be2a62a2)" style="fill: #b3b3b3"/>
   </g>
   <g id="matplotlib.axis_1">
    <g id="xtick_1">
     <g id="line2d_1">
      <path d="M 116.189686 398.0195 
L 116.189686 35.7555 
" clip-path="url(#pd1be2a62a2)" style="fill: none; stroke: #b0b0b0; stroke-opacity: 0.25; stroke-width: 0.8; stroke-linecap: square"/>
     </g>
     <g id="line2d_2">
      <defs>
       <path id="m87feea4a66" d="M 0 0 
L 0 3.5 
" style="stroke: #000000; stroke-width: 0.8"/>
      </defs>
      <g>
       <use xlink:href="#m87feea4a66" x="116.189686" y="398.0195" style="stroke: #000000; stroke-width: 0.8"/>
      </g>
     </g>
     <g id="text_1">
      <!-- score -->
      <g transform="translate(102.756874 412.617937)scale(0.1 -0.1)">
       <defs>
        <path id="DejaVuSans-73" d="M 2834 3397 
L 2834 2853 
Q 2591 2978 2328 3040 
Q 2066 3103 1784 3103 
Q 1356 3103 1142 2972 
Q 928 2841 928 2578 
Q 928 2378 1081 2264 
Q 1234 2150 1697 2047 
L 1894 2003 
Q 2506 1872 2764 1633 
Q 3022 1394 3022 966 
Q 3022 478 2636 193 
Q 2250 -91 1575 -91 
Q 1294 -91 989 -36 
Q 684 19 347 128 
L 347 722 
Q 666 556 975 473 
Q 1284 391 1588 391 
Q 1994 391 2212 530 
Q 2431 669 2431 922 
Q 2431 1156 2273 1281 
Q 2116 1406 1581 1522 
L 1381 1569 
Q 847 1681 609 1914 
Q 372 2147 372 2553 
Q 372 3047 722 3315 
Q 1072 3584 1716 3584 
Q 2034 3584 2315 3537 
Q 2597 3491 2834 3397 
z
" transform="scale(0.015625)"/>
        <path id="DejaVuSans-63" d="M 3122 3366 
L 3122 2828 
Q 2878 2963 2633 3030 
Q 2388 3097 2138 3097 
Q 1578 3097 1268 2742 
Q 959 2388 959 1747 
Q 959 1106 1268 751 
Q 1578 397 2138 397 
Q 2388 397 2633 464 
Q 2878 531 3122 666 
L 3122 134 
Q 2881 22 2623 -34 
Q 2366 -91 2075 -91 
Q 1284 -91 818 406 
Q 353 903 353 1747 
Q 353 2603 823 3093 
Q 1294 3584 2113 3584 
Q 2378 3584 2631 3529 
Q 2884 3475 3122 3366 
z
" transform="scale(0.015625)"/>
        <path id="DejaVuSans-6f" d="M 1959 3097 
Q 1497 3097 1228 2736 
Q 959 2375 959 1747 
Q 959 1119 1226 758 
Q 1494 397 1959 397 
Q 2419 397 2687 759 
Q 2956 1122 2956 1747 
Q 2956 2369 2687 2733 
Q 2419 3097 1959 3097 
z
M 1959 3584 
Q 2709 3584 3137 3096 
Q 3566 2609 3566 1747 
Q 3566 888 3137 398 
Q 2709 -91 1959 -91 
Q 1206 -91 779 398 
Q 353 888 353 1747 
Q 353 2609 779 3096 
Q 1206 3584 1959 3584 
z
" transform="scale(0.015625)"/>
        <path id="DejaVuSans-72" d="M 2631 2963 
Q 2534 3019 2420 3045 
Q 2306 3072 2169 3072 
Q 1681 3072 1420 2755 
Q 1159 2438 1159 1844 
L 1159 0 
L 581 0 
L 581 3500 
L 1159 3500 
L 1159 2956 
Q 1341 3275 1631 3429 
Q 1922 3584 2338 3584 
Q 2397 3584 2469 3576 
Q 2541 3569 2628 3553 
L 2631 2963 
z
" transform="scale(0.015625)"/>
        <path id="DejaVuSans-65" d="M 3597 1894 
L 3597 1613 
L 953 1613 
Q 991 1019 1311 708 
Q 1631 397 2203 397 
Q 2534 397 2845 478 
Q 3156 559 3463 722 
L 3463 178 
Q 3153 47 2828 -22 
Q 2503 -91 2169 -91 
Q 1331 -91 842 396 
Q 353 884 353 1716 
Q 353 2575 817 3079 
Q 1281 3584 2069 3584 
Q 2775 3584 3186 3129 
Q 3597 2675 3597 1894 
z
M 3022 2063 
Q 3016 2534 2758 2815 
Q 2500 3097 2075 3097 
Q 1594 3097 1305 2825 
Q 1016 2553 972 2059 
L 3022 2063 
z
" transform="scale(0.015625)"/>
       </defs>
       <use xlink:href="#DejaVuSans-73"/>
       <use xlink:href="#DejaVuSans-63" x="52.099609"/>
       <use xlink:href="#DejaVuSans-6f" x="107.080078"/>
       <use xlink:href="#DejaVuSans-72" x="168.261719"/>
       <use xlink:href="#DejaVuSans-65" x="207.125"/>
      </g>
     </g>
    </g>
    <g id="xtick_2">
     <g id="line2d_3">
      <path d="M 234.796406 398.0195 
L 234.796406 35.7555 
" clip-path="url(#pd1be2a62a2)" style="fill: none; stroke: #b0b0b0; stroke-opacity: 0.25; stroke-width: 0.8; stroke-linecap: square"/>
     </g>
     <g id="line2d_4">
      <g>
       <use xlink:href="#m87feea4a66" x="234.796406" y="398.0195" style="stroke: #000000; stroke-width: 0.8"/>
      </g>
     </g>
     <g id="text_2">
      <!-- alignment -->
      <g transform="translate(209.535468 412.617937)scale(0.1 -0.1)">
       <defs>
        <path id="DejaVuSans-61" d="M 2194 1759 
Q 1497 1759 1228 1600 
Q 959 1441 959 1056 
Q 959 750 1161 570 
Q 1363 391 1709 391 
Q 2188 391 2477 730 
Q 2766 1069 2766 1631 
L 2766 1759 
L 2194 1759 
z
M 3341 1997 
L 3341 0 
L 2766 0 
L 2766 531 
Q 2569 213 2275 61 
Q 1981 -91 1556 -91 
Q 1019 -91 701 211 
Q 384 513 384 1019 
Q 384 1609 779 1909 
Q 1175 2209 1959 2209 
L 2766 2209 
L 2766 2266 
Q 2766 2663 2505 2880 
Q 2244 3097 1772 3097 
Q 1472 3097 1187 3025 
Q 903 2953 641 2809 
L 641 3341 
Q 956 3463 1253 3523 
Q 1550 3584 1831 3584 
Q 2591 3584 2966 3190 
Q 3341 2797 3341 1997 
z
" transform="scale(0.015625)"/>
        <path id="DejaVuSans-6c" d="M 603 4863 
L 1178 4863 
L 1178 0 
L 603 0 
L 603 4863 
z
" transform="scale(0.015625)"/>
        <path id="DejaVuSans-69" d="M 603 3500 
L 1178 3500 
L 1178 0 
L 603 0 
L 603 3500 
z
M 603 4863 
L 1178 4863 
L 1178 4134 
L 603 4134 
L 603 4863 
z
" transform="scale(0.015625)"/>
        <path id="DejaVuSans-67" d="M 2906 1791 
Q 2906 2416 2648 2759 
Q 2391 3103 1925 3103 
Q 1463 3103 1205 2759 
Q 947 2416 947 1791 
Q 947 1169 1205 825 
Q 1463 481 1925 481 
Q 2391 481 2648 825 
Q 2906 1169 2906 1791 
z
M 3481 434 
Q 3481 -459 3084 -895 
Q 2688 -1331 1869 -1331 
Q 1566 -1331 1297 -1286 
Q 1028 -1241 775 -1147 
L 775 -588 
Q 1028 -725 1275 -790 
Q 1522 -856 1778 -856 
Q 2344 -856 2625 -561 
Q 2906 -266 2906 331 
L 2906 616 
Q 2728 306 2450 153 
Q 2172 0 1784 0 
Q 1141 0 747 490 
Q 353 981 353 1791 
Q 353 2603 747 3093 
Q 1141 3584 1784 3584 
Q 2172 3584 2450 3431 
Q 2728 3278 2906 2969 
L 2906 3500 
L 3481 3500 
L 3481 434 
z
" transform="scale(0.015625)"/>
        <path id="DejaVuSans-6e" d="M 3513 2113 
L 3513 0 
L 2938 0 
L 2938 2094 
Q 2938 2591 2744 2837 
Q 2550 3084 2163 3084 
Q 1697 3084 1428 2787 
Q 1159 2491 1159 1978 
L 1159 0 
L 581 0 
L 581 3500 
L 1159 3500 
L 1159 2956 
Q 1366 3272 1645 3428 
Q 1925 3584 2291 3584 
Q 2894 3584 3203 3211 
Q 3513 2838 3513 2113 
z
" transform="scale(0.015625)"/>
        <path id="DejaVuSans-6d" d="M 3328 2828 
Q 3544 3216 3844 3400 
Q 4144 3584 4550 3584 
Q 5097 3584 5394 3201 
Q 5691 2819 5691 2113 
L 5691 0 
L 5113 0 
L 5113 2094 
Q 5113 2597 4934 2840 
Q 4756 3084 4391 3084 
Q 3944 3084 3684 2787 
Q 3425 2491 3425 1978 
L 3425 0 
L 2847 0 
L 2847 2094 
Q 2847 2600 2669 2842 
Q 2491 3084 2119 3084 
Q 1678 3084 1418 2786 
Q 1159 2488 1159 1978 
L 1159 0 
L 581 0 
L 581 3500 
L 1159 3500 
L 1159 2956 
Q 1356 3278 1631 3431 
Q 1906 3584 2284 3584 
Q 2666 3584 2933 3390 
Q 3200 3197 3328 2828 
z
" transform="scale(0.015625)"/>
        <path id="DejaVuSans-74" d="M 1172 4494 
L 1172 3500 
L 2356 3500 
L 2356 3053 
L 1172 3053 
L 1172 1153 
Q 1172 725 1289 603 
Q 1406 481 1766 481 
L 2356 481 
L 2356 0 
L 1766 0 
Q 1100 0 847 248 
Q 594 497 594 1153 
L 594 3053 
L 172 3053 
L 172 3500 
L 594 3500 
L 594 4494 
L 1172 4494 
z
" transform="scale(0.015625)"/>
       </defs>
       <use xlink:href="#DejaVuSans-61"/>
       <use xlink:href="#DejaVuSans-6c" x="61.279297"/>
       <use xlink:href="#DejaVuSans-69" x="89.0625"/>
       <use xlink:href="#DejaVuSans-67" x="116.845703"/>
       <use xlink:href="#DejaVuSans-6e" x="180.322266"/>
       <use xlink:href="#DejaVuSans-6d" x="243.701172"/>
       <use xlink:href="#DejaVuSans-65" x="341.113281"/>
       <use xlink:href="#DejaVuSans-6e" x="402.636719"/>
       <use xlink:href="#DejaVuSans-74" x="466.015625"/>
      </g>
     </g>
    </g>
    <g id="xtick_3">
     <g id="line2d_5">
      <path d="M 353.403125 398.0195 
L 353.403125 35.7555 
" clip-path="url(#pd1be2a62a2)" style="fill: none; stroke: #b0b0b0; stroke-opacity: 0.25; stroke-width: 0.8; stroke-linecap: square"/>
     </g>
     <g id="line2d_6">
      <g>
       <use xlink:href="#m87feea4a66" x="353.403125" y="398.0195" style="stroke: #000000; stroke-width: 0.8"/>
      </g>
     </g>
     <g id="text_3">
      <!-- matrix -->
      <g transform="translate(337.104688 412.617937)scale(0.1 -0.1)">
       <defs>
        <path id="DejaVuSans-78" d="M 3513 3500 
L 2247 1797 
L 3578 0 
L 2900 0 
L 1881 1375 
L 863 0 
L 184 0 
L 1544 1831 
L 300 3500 
L 978 3500 
L 1906 2253 
L 2834 3500 
L 3513 3500 
z
" transform="scale(0.015625)"/>
       </defs>
       <use xlink:href="#DejaVuSans-6d"/>
       <use xlink:href="#DejaVuSans-61" x="97.412109"/>
       <use xlink:href="#DejaVuSans-74" x="158.691406"/>
       <use xlink:href="#DejaVuSans-72" x="197.900391"/>
       <use xlink:href="#DejaVuSans-69" x="239.013672"/>
       <use xlink:href="#DejaVuSans-78" x="266.796875"/>
      </g>
     </g>
    </g>
    <g id="xtick_4">
     <g id="line2d_7">
      <path d="M 472.009844 398.0195 
L 472.009844 35.7555 
" clip-path="url(#pd1be2a62a2)" style="fill: none; stroke: #b0b0b0; stroke-opacity: 0.25; stroke-width: 0.8; stroke-linecap: square"/>
     </g>
     <g id="line2d_8">
      <g>
       <use xlink:href="#m87feea4a66" x="472.009844" y="398.0195" style="stroke: #000000; stroke-width: 0.8"/>
      </g>
     </g>
     <g id="text_4">
      <!-- all alignments -->
      <g transform="translate(436.712969 412.617937)scale(0.1 -0.1)">
       <defs>
        <path id="DejaVuSans-20" transform="scale(0.015625)"/>
       </defs>
       <use xlink:href="#DejaVuSans-61"/>
       <use xlink:href="#DejaVuSans-6c" x="61.279297"/>
       <use xlink:href="#DejaVuSans-6c" x="89.0625"/>
       <use xlink:href="#DejaVuSans-20" x="116.845703"/>
       <use xlink:href="#DejaVuSans-61" x="148.632812"/>
       <use xlink:href="#DejaVuSans-6c" x="209.912109"/>
       <use xlink:href="#DejaVuSans-69" x="237.695312"/>
       <use xlink:href="#DejaVuSans-67" x="265.478516"/>
       <use xlink:href="#DejaVuSans-6e" x="328.955078"/>
       <use xlink:href="#DejaVuSans-6d" x="392.333984"/>
       <use xlink:href="#DejaVuSans-65" x="489.746094"/>
       <use xlink:href="#DejaVuSans-6e" x="551.269531"/>
       <use xlink:href="#DejaVuSans-74" x="614.648438"/>
       <use xlink:href="#DejaVuSans-73" x="653.857422"/>
      </g>
     </g>
    </g>
    <g id="xtick_5">
     <g id="line2d_9">
      <path d="M 590.616564 398.0195 
L 590.616564 35.7555 
" clip-path="url(#pd1be2a62a2)" style="fill: none; stroke: #b0b0b0; stroke-opacity: 0.25; stroke-width: 0.8; stroke-linecap: square"/>
     </g>
     <g id="line2d_10">
      <g>
       <use xlink:href="#m87feea4a66" x="590.616564" y="398.0195" style="stroke: #000000; stroke-width: 0.8"/>
      </g>
     </g>
     <g id="text_5">
      <!-- all matrices -->
      <g transform="translate(561.415782 412.617937)scale(0.1 -0.1)">
       <use xlink:href="#DejaVuSans-61"/>
       <use xlink:href="#DejaVuSans-6c" x="61.279297"/>
       <use xlink:href="#DejaVuSans-6c" x="89.0625"/>
       <use xlink:href="#DejaVuSans-20" x="116.845703"/>
       <use xlink:href="#DejaVuSans-6d" x="148.632812"/>
       <use xlink:href="#DejaVuSans-61" x="246.044922"/>
       <use xlink:href="#DejaVuSans-74" x="307.324219"/>
       <use xlink:href="#DejaVuSans-72" x="346.533203"/>
       <use xlink:href="#DejaVuSans-69" x="387.646484"/>
       <use xlink:href="#DejaVuSans-63" x="415.429688"/>
       <use xlink:href="#DejaVuSans-65" x="470.410156"/>
       <use xlink:href="#DejaVuSans-73" x="531.933594"/>
      </g>
     </g>
    </g>
   </g>
   <g id="matplotlib.axis_2">
    <g id="ytick_1">
     <g id="line2d_11">
      <path d="M 53.328125 398.0195 
L 653.478125 398.0195 
" clip-path="url(#pd1be2a62a2)" style="fill: none; stroke: #b0b0b0; stroke-opacity: 0.25; stroke-width: 0.8; stroke-linecap: square"/>
     </g>
     <g id="line2d_12">
      <defs>
       <path id="mdbf4d00d77" d="M 0 0 
L -3.5 0 
" style="stroke: #000000; stroke-width: 0.8"/>
      </defs>
      <g>
       <use xlink:href="#mdbf4d00d77" x="53.328125" y="398.0195" style="stroke: #000000; stroke-width: 0.8"/>
      </g>
     </g>
     <g id="text_6">
      <!-- 0 -->
      <g transform="translate(39.965625 401.818719)scale(0.1 -0.1)">
       <defs>
        <path id="DejaVuSans-30" d="M 2034 4250 
Q 1547 4250 1301 3770 
Q 1056 3291 1056 2328 
Q 1056 1369 1301 889 
Q 1547 409 2034 409 
Q 2525 409 2770 889 
Q 3016 1369 3016 2328 
Q 3016 3291 2770 3770 
Q 2525 4250 2034 4250 
z
M 2034 4750 
Q 2819 4750 3233 4129 
Q 3647 3509 3647 2328 
Q 3647 1150 3233 529 
Q 2819 -91 2034 -91 
Q 1250 -91 836 529 
Q 422 1150 422 2328 
Q 422 3509 836 4129 
Q 1250 4750 2034 4750 
z
" transform="scale(0.015625)"/>
       </defs>
       <use xlink:href="#DejaVuSans-30"/>
      </g>
     </g>
    </g>
    <g id="ytick_2">
     <g id="line2d_13">
      <path d="M 53.328125 347.282245 
L 653.478125 347.282245 
" clip-path="url(#pd1be2a62a2)" style="fill: none; stroke: #b0b0b0; stroke-opacity: 0.25; stroke-width: 0.8; stroke-linecap: square"/>
     </g>
     <g id="line2d_14">
      <g>
       <use xlink:href="#mdbf4d00d77" x="53.328125" y="347.282245" style="stroke: #000000; stroke-width: 0.8"/>
      </g>
     </g>
     <g id="text_7">
      <!-- 200 -->
      <g transform="translate(27.240625 351.081464)scale(0.1 -0.1)">
       <defs>
        <path id="DejaVuSans-32" d="M 1228 531 
L 3431 531 
L 3431 0 
L 469 0 
L 469 531 
Q 828 903 1448 1529 
Q 2069 2156 2228 2338 
Q 2531 2678 2651 2914 
Q 2772 3150 2772 3378 
Q 2772 3750 2511 3984 
Q 2250 4219 1831 4219 
Q 1534 4219 1204 4116 
Q 875 4013 500 3803 
L 500 4441 
Q 881 4594 1212 4672 
Q 1544 4750 1819 4750 
Q 2544 4750 2975 4387 
Q 3406 4025 3406 3419 
Q 3406 3131 3298 2873 
Q 3191 2616 2906 2266 
Q 2828 2175 2409 1742 
Q 1991 1309 1228 531 
z
" transform="scale(0.015625)"/>
       </defs>
       <use xlink:href="#DejaVuSans-32"/>
       <use xlink:href="#DejaVuSans-30" x="63.623047"/>
       <use xlink:href="#DejaVuSans-30" x="127.246094"/>
      </g>
     </g>
    </g>
    <g id="ytick_3">
     <g id="line2d_15">
      <path d="M 53.328125 296.54499 
L 653.478125 296.54499 
" clip-path="url(#pd1be2a62a2)" style="fill: none; stroke: #b0b0b0; stroke-opacity: 0.25; stroke-width: 0.8; stroke-linecap: square"/>
     </g>
     <g id="line2d_16">
      <g>
       <use xlink:href="#mdbf4d00d77" x="53.328125" y="296.54499" style="stroke: #000000; stroke-width: 0.8"/>
      </g>
     </g>
     <g id="text_8">
      <!-- 400 -->
      <g transform="translate(27.240625 300.344209)scale(0.1 -0.1)">
       <defs>
        <path id="DejaVuSans-34" d="M 2419 4116 
L 825 1625 
L 2419 1625 
L 2419 4116 
z
M 2253 4666 
L 3047 4666 
L 3047 1625 
L 3713 1625 
L 3713 1100 
L 3047 1100 
L 3047 0 
L 2419 0 
L 2419 1100 
L 313 1100 
L 313 1709 
L 2253 4666 
z
" transform="scale(0.015625)"/>
       </defs>
       <use xlink:href="#DejaVuSans-34"/>
       <use xlink:href="#DejaVuSans-30" x="63.623047"/>
       <use xlink:href="#DejaVuSans-30" x="127.246094"/>
      </g>
     </g>
    </g>
    <g id="ytick_4">
     <g id="line2d_17">
      <path d="M 53.328125 245.807735 
L 653.478125 245.807735 
" clip-path="url(#pd1be2a62a2)" style="fill: none; stroke: #b0b0b0; stroke-opacity: 0.25; stroke-width: 0.8; stroke-linecap: square"/>
     </g>
     <g id="line2d_18">
      <g>
       <use xlink:href="#mdbf4d00d77" x="53.328125" y="245.807735" style="stroke: #000000; stroke-width: 0.8"/>
      </g>
     </g>
     <g id="text_9">
      <!-- 600 -->
      <g transform="translate(27.240625 249.606954)scale(0.1 -0.1)">
       <defs>
        <path id="DejaVuSans-36" d="M 2113 2584 
Q 1688 2584 1439 2293 
Q 1191 2003 1191 1497 
Q 1191 994 1439 701 
Q 1688 409 2113 409 
Q 2538 409 2786 701 
Q 3034 994 3034 1497 
Q 3034 2003 2786 2293 
Q 2538 2584 2113 2584 
z
M 3366 4563 
L 3366 3988 
Q 3128 4100 2886 4159 
Q 2644 4219 2406 4219 
Q 1781 4219 1451 3797 
Q 1122 3375 1075 2522 
Q 1259 2794 1537 2939 
Q 1816 3084 2150 3084 
Q 2853 3084 3261 2657 
Q 3669 2231 3669 1497 
Q 3669 778 3244 343 
Q 2819 -91 2113 -91 
Q 1303 -91 875 529 
Q 447 1150 447 2328 
Q 447 3434 972 4092 
Q 1497 4750 2381 4750 
Q 2619 4750 2861 4703 
Q 3103 4656 3366 4563 
z
" transform="scale(0.015625)"/>
       </defs>
       <use xlink:href="#DejaVuSans-36"/>
       <use xlink:href="#DejaVuSans-30" x="63.623047"/>
       <use xlink:href="#DejaVuSans-30" x="127.246094"/>
      </g>
     </g>
    </g>
    <g id="ytick_5">
     <g id="line2d_19">
      <path d="M 53.328125 195.07048 
L 653.478125 195.07048 
" clip-path="url(#pd1be2a62a2)" style="fill: none; stroke: #b0b0b0; stroke-opacity: 0.25; stroke-width: 0.8; stroke-linecap: square"/>
     </g>
     <g id="line2d_20">
      <g>
       <use xlink:href="#mdbf4d00d77" x="53.328125" y="195.07048" style="stroke: #000000; stroke-width: 0.8"/>
      </g>
     </g>
     <g id="text_10">
      <!-- 800 -->
      <g transform="translate(27.240625 198.869699)scale(0.1 -0.1)">
       <defs>
        <path id="DejaVuSans-38" d="M 2034 2216 
Q 1584 2216 1326 1975 
Q 1069 1734 1069 1313 
Q 1069 891 1326 650 
Q 1584 409 2034 409 
Q 2484 409 2743 651 
Q 3003 894 3003 1313 
Q 3003 1734 2745 1975 
Q 2488 2216 2034 2216 
z
M 1403 2484 
Q 997 2584 770 2862 
Q 544 3141 544 3541 
Q 544 4100 942 4425 
Q 1341 4750 2034 4750 
Q 2731 4750 3128 4425 
Q 3525 4100 3525 3541 
Q 3525 3141 3298 2862 
Q 3072 2584 2669 2484 
Q 3125 2378 3379 2068 
Q 3634 1759 3634 1313 
Q 3634 634 3220 271 
Q 2806 -91 2034 -91 
Q 1263 -91 848 271 
Q 434 634 434 1313 
Q 434 1759 690 2068 
Q 947 2378 1403 2484 
z
M 1172 3481 
Q 1172 3119 1398 2916 
Q 1625 2713 2034 2713 
Q 2441 2713 2670 2916 
Q 2900 3119 2900 3481 
Q 2900 3844 2670 4047 
Q 2441 4250 2034 4250 
Q 1625 4250 1398 4047 
Q 1172 3844 1172 3481 
z
" transform="scale(0.015625)"/>
       </defs>
       <use xlink:href="#DejaVuSans-38"/>
       <use xlink:href="#DejaVuSans-30" x="63.623047"/>
       <use xlink:href="#DejaVuSans-30" x="127.246094"/>
      </g>
     </g>
    </g>
    <g id="ytick_6">
     <g id="line2d_21">
      <path d="M 53.328125 144.333225 
L 653.478125 144.333225 
" clip-path="url(#pd1be2a62a2)" style="fill: none; stroke: #b0b0b0; stroke-opacity: 0.25; stroke-width: 0.8; stroke-linecap: square"/>
     </g>
     <g id="line2d_22">
      <g>
       <use xlink:href="#mdbf4d00d77" x="53.328125" y="144.333225" style="stroke: #000000; stroke-width: 0.8"/>
      </g>
     </g>
     <g id="text_11">
      <!-- 1000 -->
      <g transform="translate(20.878125 148.132444)scale(0.1 -0.1)">
       <defs>
        <path id="DejaVuSans-31" d="M 794 531 
L 1825 531 
L 1825 4091 
L 703 3866 
L 703 4441 
L 1819 4666 
L 2450 4666 
L 2450 531 
L 3481 531 
L 3481 0 
L 794 0 
L 794 531 
z
" transform="scale(0.015625)"/>
       </defs>
       <use xlink:href="#DejaVuSans-31"/>
       <use xlink:href="#DejaVuSans-30" x="63.623047"/>
       <use xlink:href="#DejaVuSans-30" x="127.246094"/>
       <use xlink:href="#DejaVuSans-30" x="190.869141"/>
      </g>
     </g>
    </g>
    <g id="ytick_7">
     <g id="line2d_23">
      <path d="M 53.328125 93.595971 
L 653.478125 93.595971 
" clip-path="url(#pd1be2a62a2)" style="fill: none; stroke: #b0b0b0; stroke-opacity: 0.25; stroke-width: 0.8; stroke-linecap: square"/>
     </g>
     <g id="line2d_24">
      <g>
       <use xlink:href="#mdbf4d00d77" x="53.328125" y="93.595971" style="stroke: #000000; stroke-width: 0.8"/>
      </g>
     </g>
     <g id="text_12">
      <!-- 1200 -->
      <g transform="translate(20.878125 97.395189)scale(0.1 -0.1)">
       <use xlink:href="#DejaVuSans-31"/>
       <use xlink:href="#DejaVuSans-32" x="63.623047"/>
       <use xlink:href="#DejaVuSans-30" x="127.246094"/>
       <use xlink:href="#DejaVuSans-30" x="190.869141"/>
      </g>
     </g>
    </g>
    <g id="ytick_8">
     <g id="line2d_25">
      <path d="M 53.328125 42.858716 
L 653.478125 42.858716 
" clip-path="url(#pd1be2a62a2)" style="fill: none; stroke: #b0b0b0; stroke-opacity: 0.25; stroke-width: 0.8; stroke-linecap: square"/>
     </g>
     <g id="line2d_26">
      <g>
       <use xlink:href="#mdbf4d00d77" x="53.328125" y="42.858716" style="stroke: #000000; stroke-width: 0.8"/>
      </g>
     </g>
     <g id="text_13">
      <!-- 1400 -->
      <g transform="translate(20.878125 46.657934)scale(0.1 -0.1)">
       <use xlink:href="#DejaVuSans-31"/>
       <use xlink:href="#DejaVuSans-34" x="63.623047"/>
       <use xlink:href="#DejaVuSans-30" x="127.246094"/>
       <use xlink:href="#DejaVuSans-30" x="190.869141"/>
      </g>
     </g>
    </g>
    <g id="text_14">
     <!-- time in μs -->
     <g transform="translate(14.798438 241.705469)rotate(-90)scale(0.1 -0.1)">
      <defs>
       <path id="DejaVuSans-3bc" d="M 544 -1331 
L 544 3500 
L 1119 3500 
L 1119 1325 
Q 1119 872 1334 640 
Q 1550 409 1972 409 
Q 2434 409 2667 671 
Q 2900 934 2900 1459 
L 2900 3500 
L 3475 3500 
L 3475 806 
Q 3475 619 3529 530 
Q 3584 441 3700 441 
Q 3728 441 3778 458 
Q 3828 475 3916 513 
L 3916 50 
Q 3788 -22 3673 -56 
Q 3559 -91 3450 -91 
Q 3234 -91 3106 31 
Q 2978 153 2931 403 
Q 2775 156 2548 32 
Q 2322 -91 2016 -91 
Q 1697 -91 1473 31 
Q 1250 153 1119 397 
L 1119 -1331 
L 544 -1331 
z
" transform="scale(0.015625)"/>
      </defs>
      <use xlink:href="#DejaVuSans-74"/>
      <use xlink:href="#DejaVuSans-69" x="39.208984"/>
      <use xlink:href="#DejaVuSans-6d" x="66.992188"/>
      <use xlink:href="#DejaVuSans-65" x="164.404297"/>
      <use xlink:href="#DejaVuSans-20" x="225.927734"/>
      <use xlink:href="#DejaVuSans-69" x="257.714844"/>
      <use xlink:href="#DejaVuSans-6e" x="285.498047"/>
      <use xlink:href="#DejaVuSans-20" x="348.876953"/>
      <use xlink:href="#DejaVuSans-3bc" x="380.664062"/>
      <use xlink:href="#DejaVuSans-73" x="444.287109"/>
     </g>
    </g>
   </g>
   <g id="patch_38">
    <path d="M 53.328125 398.0195 
L 53.328125 35.7555 
" style="fill: none; stroke: #000000; stroke-width: 0.8; stroke-linejoin: miter; stroke-linecap: square"/>
   </g>
   <g id="patch_39">
    <path d="M 653.478125 398.0195 
L 653.478125 35.7555 
" style="fill: none; stroke: #000000; stroke-width: 0.8; stroke-linejoin: miter; stroke-linecap: square"/>
   </g>
   <g id="patch_40">
    <path d="M 53.328125 398.0195 
L 653.478125 398.0195 
" style="fill: none; stroke: #000000; stroke-width: 0.8; stroke-linejoin: miter; stroke-linecap: square"/>
   </g>
   <g id="patch_41">
    <path d="M 53.328125 35.7555 
L 653.478125 35.7555 
" style="fill: none; stroke: #000000; stroke-width: 0.8; stroke-linejoin: miter; stroke-linecap: square"/>
   </g>
   <g id="text_15">
    <!-- local alignment, linear gap cost -->
    <g transform="translate(258.86 16.318125)scale(0.12 -0.12)">
     <defs>
      <path id="DejaVuSans-2c" d="M 750 794 
L 1409 794 
L 1409 256 
L 897 -744 
L 494 -744 
L 750 256 
L 750 794 
z
" transform="scale(0.015625)"/>
      <path id="DejaVuSans-70" d="M 1159 525 
L 1159 -1331 
L 581 -1331 
L 581 3500 
L 1159 3500 
L 1159 2969 
Q 1341 3281 1617 3432 
Q 1894 3584 2278 3584 
Q 2916 3584 3314 3078 
Q 3713 2572 3713 1747 
Q 3713 922 3314 415 
Q 2916 -91 2278 -91 
Q 1894 -91 1617 61 
Q 1341 213 1159 525 
z
M 3116 1747 
Q 3116 2381 2855 2742 
Q 2594 3103 2138 3103 
Q 1681 3103 1420 2742 
Q 1159 2381 1159 1747 
Q 1159 1113 1420 752 
Q 1681 391 2138 391 
Q 2594 391 2855 752 
Q 3116 1113 3116 1747 
z
" transform="scale(0.015625)"/>
     </defs>
     <use xlink:href="#DejaVuSans-6c"/>
     <use xlink:href="#DejaVuSans-6f" x="27.783203"/>
     <use xlink:href="#DejaVuSans-63" x="88.964844"/>
     <use xlink:href="#DejaVuSans-61" x="143.945312"/>
     <use xlink:href="#DejaVuSans-6c" x="205.224609"/>
     <use xlink:href="#DejaVuSans-20" x="233.007812"/>
     <use xlink:href="#DejaVuSans-61" x="264.794922"/>
     <use xlink:href="#DejaVuSans-6c" x="326.074219"/>
     <use xlink:href="#DejaVuSans-69" x="353.857422"/>
     <use xlink:href="#DejaVuSans-67" x="381.640625"/>
     <use xlink:href="#DejaVuSans-6e" x="445.117188"/>
     <use xlink:href="#DejaVuSans-6d" x="508.496094"/>
     <use xlink:href="#DejaVuSans-65" x="605.908203"/>
     <use xlink:href="#DejaVuSans-6e" x="667.431641"/>
     <use xlink:href="#DejaVuSans-74" x="730.810547"/>
     <use xlink:href="#DejaVuSans-2c" x="770.019531"/>
     <use xlink:href="#DejaVuSans-20" x="801.806641"/>
     <use xlink:href="#DejaVuSans-6c" x="833.59375"/>
     <use xlink:href="#DejaVuSans-69" x="861.376953"/>
     <use xlink:href="#DejaVuSans-6e" x="889.160156"/>
     <use xlink:href="#DejaVuSans-65" x="952.539062"/>
     <use xlink:href="#DejaVuSans-61" x="1014.0625"/>
     <use xlink:href="#DejaVuSans-72" x="1075.341797"/>
     <use xlink:href="#DejaVuSans-20" x="1116.455078"/>
     <use xlink:href="#DejaVuSans-67" x="1148.242188"/>
     <use xlink:href="#DejaVuSans-61" x="1211.71875"/>
     <use xlink:href="#DejaVuSans-70" x="1272.998047"/>
     <use xlink:href="#DejaVuSans-20" x="1336.474609"/>
     <use xlink:href="#DejaVuSans-63" x="1368.261719"/>
     <use xlink:href="#DejaVuSans-6f" x="1423.242188"/>
     <use xlink:href="#DejaVuSans-73" x="1484.423828"/>
     <use xlink:href="#DejaVuSans-74" x="1536.523438"/>
    </g>
    <!-- sequence lengths 10 and 100 -->
    <g transform="translate(264.234687 29.7555)scale(0.12 -0.12)">
     <defs>
      <path id="DejaVuSans-71" d="M 947 1747 
Q 947 1113 1208 752 
Q 1469 391 1925 391 
Q 2381 391 2643 752 
Q 2906 1113 2906 1747 
Q 2906 2381 2643 2742 
Q 2381 3103 1925 3103 
Q 1469 3103 1208 2742 
Q 947 2381 947 1747 
z
M 2906 525 
Q 2725 213 2448 61 
Q 2172 -91 1784 -91 
Q 1150 -91 751 415 
Q 353 922 353 1747 
Q 353 2572 751 3078 
Q 1150 3584 1784 3584 
Q 2172 3584 2448 3432 
Q 2725 3281 2906 2969 
L 2906 3500 
L 3481 3500 
L 3481 -1331 
L 2906 -1331 
L 2906 525 
z
" transform="scale(0.015625)"/>
      <path id="DejaVuSans-75" d="M 544 1381 
L 544 3500 
L 1119 3500 
L 1119 1403 
Q 1119 906 1312 657 
Q 1506 409 1894 409 
Q 2359 409 2629 706 
Q 2900 1003 2900 1516 
L 2900 3500 
L 3475 3500 
L 3475 0 
L 2900 0 
L 2900 538 
Q 2691 219 2414 64 
Q 2138 -91 1772 -91 
Q 1169 -91 856 284 
Q 544 659 544 1381 
z
M 1991 3584 
L 1991 3584 
z
" transform="scale(0.015625)"/>
      <path id="DejaVuSans-68" d="M 3513 2113 
L 3513 0 
L 2938 0 
L 2938 2094 
Q 2938 2591 2744 2837 
Q 2550 3084 2163 3084 
Q 1697 3084 1428 2787 
Q 1159 2491 1159 1978 
L 1159 0 
L 581 0 
L 581 4863 
L 1159 4863 
L 1159 2956 
Q 1366 3272 1645 3428 
Q 1925 3584 2291 3584 
Q 2894 3584 3203 3211 
Q 3513 2838 3513 2113 
z
" transform="scale(0.015625)"/>
      <path id="DejaVuSans-64" d="M 2906 2969 
L 2906 4863 
L 3481 4863 
L 3481 0 
L 2906 0 
L 2906 525 
Q 2725 213 2448 61 
Q 2172 -91 1784 -91 
Q 1150 -91 751 415 
Q 353 922 353 1747 
Q 353 2572 751 3078 
Q 1150 3584 1784 3584 
Q 2172 3584 2448 3432 
Q 2725 3281 2906 2969 
z
M 947 1747 
Q 947 1113 1208 752 
Q 1469 391 1925 391 
Q 2381 391 2643 752 
Q 2906 1113 2906 1747 
Q 2906 2381 2643 2742 
Q 2381 3103 1925 3103 
Q 1469 3103 1208 2742 
Q 947 2381 947 1747 
z
" transform="scale(0.015625)"/>
     </defs>
     <use xlink:href="#DejaVuSans-73"/>
     <use xlink:href="#DejaVuSans-65" x="52.099609"/>
     <use xlink:href="#DejaVuSans-71" x="113.623047"/>
     <use xlink:href="#DejaVuSans-75" x="177.099609"/>
     <use xlink:href="#DejaVuSans-65" x="240.478516"/>
     <use xlink:href="#DejaVuSans-6e" x="302.001953"/>
     <use xlink:href="#DejaVuSans-63" x="365.380859"/>
     <use xlink:href="#DejaVuSans-65" x="420.361328"/>
     <use xlink:href="#DejaVuSans-20" x="481.884766"/>
     <use xlink:href="#DejaVuSans-6c" x="513.671875"/>
     <use xlink:href="#DejaVuSans-65" x="541.455078"/>
     <use xlink:href="#DejaVuSans-6e" x="602.978516"/>
     <use xlink:href="#DejaVuSans-67" x="666.357422"/>
     <use xlink:href="#DejaVuSans-74" x="729.833984"/>
     <use xlink:href="#DejaVuSans-68" x="769.042969"/>
     <use xlink:href="#DejaVuSans-73" x="832.421875"/>
     <use xlink:href="#DejaVuSans-20" x="884.521484"/>
     <use xlink:href="#DejaVuSans-31" x="916.308594"/>
     <use xlink:href="#DejaVuSans-30" x="979.931641"/>
     <use xlink:href="#DejaVuSans-20" x="1043.554688"/>
     <use xlink:href="#DejaVuSans-61" x="1075.341797"/>
     <use xlink:href="#DejaVuSans-6e" x="1136.621094"/>
     <use xlink:href="#DejaVuSans-64" x="1200"/>
     <use xlink:href="#DejaVuSans-20" x="1263.476562"/>
     <use xlink:href="#DejaVuSans-31" x="1295.263672"/>
     <use xlink:href="#DejaVuSans-30" x="1358.886719"/>
     <use xlink:href="#DejaVuSans-30" x="1422.509766"/>
    </g>
   </g>
   <g id="legend_1">
    <g id="patch_42">
     <path d="M 642.305937 124.855337 
L 826.523125 124.855337 
Q 828.523125 124.855337 828.523125 122.855337 
L 828.523125 21.108462 
Q 828.523125 19.108462 826.523125 19.108462 
L 642.305937 19.108462 
Q 640.305937 19.108462 640.305937 21.108462 
L 640.305937 122.855337 
Q 640.305937 124.855337 642.305937 124.855337 
z
" style="fill: #ffffff; opacity: 0.8; stroke: #cccccc; stroke-linejoin: miter"/>
    </g>
    <g id="patch_43">
     <path d="M 644.305937 30.7069 
L 664.305937 30.7069 
L 664.305937 23.7069 
L 644.305937 23.7069 
z
" style="fill: #66c2a5"/>
    </g>
    <g id="text_16">
     <!-- pure python -->
     <g transform="translate(672.305937 30.7069)scale(0.1 -0.1)">
      <defs>
       <path id="DejaVuSans-79" d="M 2059 -325 
Q 1816 -950 1584 -1140 
Q 1353 -1331 966 -1331 
L 506 -1331 
L 506 -850 
L 844 -850 
Q 1081 -850 1212 -737 
Q 1344 -625 1503 -206 
L 1606 56 
L 191 3500 
L 800 3500 
L 1894 763 
L 2988 3500 
L 3597 3500 
L 2059 -325 
z
" transform="scale(0.015625)"/>
      </defs>
      <use xlink:href="#DejaVuSans-70"/>
      <use xlink:href="#DejaVuSans-75" x="63.476562"/>
      <use xlink:href="#DejaVuSans-72" x="126.855469"/>
      <use xlink:href="#DejaVuSans-65" x="165.71875"/>
      <use xlink:href="#DejaVuSans-20" x="227.242188"/>
      <use xlink:href="#DejaVuSans-70" x="259.029297"/>
      <use xlink:href="#DejaVuSans-79" x="322.505859"/>
      <use xlink:href="#DejaVuSans-74" x="381.685547"/>
      <use xlink:href="#DejaVuSans-68" x="420.894531"/>
      <use xlink:href="#DejaVuSans-6f" x="484.273438"/>
      <use xlink:href="#DejaVuSans-6e" x="545.455078"/>
     </g>
    </g>
    <g id="patch_44">
     <path d="M 644.305937 45.385025 
L 664.305937 45.385025 
L 664.305937 38.385025 
L 644.305937 38.385025 
z
" style="fill: #fc8d62"/>
    </g>
    <g id="text_17">
     <!-- Bio.Align.PairwiseAligner -->
     <g transform="translate(672.305937 45.385025)scale(0.1 -0.1)">
      <defs>
       <path id="DejaVuSans-42" d="M 1259 2228 
L 1259 519 
L 2272 519 
Q 2781 519 3026 730 
Q 3272 941 3272 1375 
Q 3272 1813 3026 2020 
Q 2781 2228 2272 2228 
L 1259 2228 
z
M 1259 4147 
L 1259 2741 
L 2194 2741 
Q 2656 2741 2882 2914 
Q 3109 3088 3109 3444 
Q 3109 3797 2882 3972 
Q 2656 4147 2194 4147 
L 1259 4147 
z
M 628 4666 
L 2241 4666 
Q 2963 4666 3353 4366 
Q 3744 4066 3744 3513 
Q 3744 3084 3544 2831 
Q 3344 2578 2956 2516 
Q 3422 2416 3680 2098 
Q 3938 1781 3938 1306 
Q 3938 681 3513 340 
Q 3088 0 2303 0 
L 628 0 
L 628 4666 
z
" transform="scale(0.015625)"/>
       <path id="DejaVuSans-2e" d="M 684 794 
L 1344 794 
L 1344 0 
L 684 0 
L 684 794 
z
" transform="scale(0.015625)"/>
       <path id="DejaVuSans-41" d="M 2188 4044 
L 1331 1722 
L 3047 1722 
L 2188 4044 
z
M 1831 4666 
L 2547 4666 
L 4325 0 
L 3669 0 
L 3244 1197 
L 1141 1197 
L 716 0 
L 50 0 
L 1831 4666 
z
" transform="scale(0.015625)"/>
       <path id="DejaVuSans-50" d="M 1259 4147 
L 1259 2394 
L 2053 2394 
Q 2494 2394 2734 2622 
Q 2975 2850 2975 3272 
Q 2975 3691 2734 3919 
Q 2494 4147 2053 4147 
L 1259 4147 
z
M 628 4666 
L 2053 4666 
Q 2838 4666 3239 4311 
Q 3641 3956 3641 3272 
Q 3641 2581 3239 2228 
Q 2838 1875 2053 1875 
L 1259 1875 
L 1259 0 
L 628 0 
L 628 4666 
z
" transform="scale(0.015625)"/>
       <path id="DejaVuSans-77" d="M 269 3500 
L 844 3500 
L 1563 769 
L 2278 3500 
L 2956 3500 
L 3675 769 
L 4391 3500 
L 4966 3500 
L 4050 0 
L 3372 0 
L 2619 2869 
L 1863 0 
L 1184 0 
L 269 3500 
z
" transform="scale(0.015625)"/>
      </defs>
      <use xlink:href="#DejaVuSans-42"/>
      <use xlink:href="#DejaVuSans-69" x="68.603516"/>
      <use xlink:href="#DejaVuSans-6f" x="96.386719"/>
      <use xlink:href="#DejaVuSans-2e" x="155.818359"/>
      <use xlink:href="#DejaVuSans-41" x="187.605469"/>
      <use xlink:href="#DejaVuSans-6c" x="256.013672"/>
      <use xlink:href="#DejaVuSans-69" x="283.796875"/>
      <use xlink:href="#DejaVuSans-67" x="311.580078"/>
      <use xlink:href="#DejaVuSans-6e" x="375.056641"/>
      <use xlink:href="#DejaVuSans-2e" x="438.435547"/>
      <use xlink:href="#DejaVuSans-50" x="470.222656"/>
      <use xlink:href="#DejaVuSans-61" x="526.025391"/>
      <use xlink:href="#DejaVuSans-69" x="587.304688"/>
      <use xlink:href="#DejaVuSans-72" x="615.087891"/>
      <use xlink:href="#DejaVuSans-77" x="656.201172"/>
      <use xlink:href="#DejaVuSans-69" x="737.988281"/>
      <use xlink:href="#DejaVuSans-73" x="765.771484"/>
      <use xlink:href="#DejaVuSans-65" x="817.871094"/>
      <use xlink:href="#DejaVuSans-41" x="879.394531"/>
      <use xlink:href="#DejaVuSans-6c" x="947.802734"/>
      <use xlink:href="#DejaVuSans-69" x="975.585938"/>
      <use xlink:href="#DejaVuSans-67" x="1003.369141"/>
      <use xlink:href="#DejaVuSans-6e" x="1066.845703"/>
      <use xlink:href="#DejaVuSans-65" x="1130.224609"/>
      <use xlink:href="#DejaVuSans-72" x="1191.748047"/>
     </g>
    </g>
    <g id="patch_45">
     <path d="M 644.305937 60.06315 
L 664.305937 60.06315 
L 664.305937 53.06315 
L 644.305937 53.06315 
z
" style="fill: #8da0cb"/>
    </g>
    <g id="text_18">
     <!-- parasail.sw -->
     <g transform="translate(672.305937 60.06315)scale(0.1 -0.1)">
      <use xlink:href="#DejaVuSans-70"/>
      <use xlink:href="#DejaVuSans-61" x="63.476562"/>
      <use xlink:href="#DejaVuSans-72" x="124.755859"/>
      <use xlink:href="#DejaVuSans-61" x="165.869141"/>
      <use xlink:href="#DejaVuSans-73" x="227.148438"/>
      <use xlink:href="#DejaVuSans-61" x="279.248047"/>
      <use xlink:href="#DejaVuSans-69" x="340.527344"/>
      <use xlink:href="#DejaVuSans-6c" x="368.310547"/>
      <use xlink:href="#DejaVuSans-2e" x="396.09375"/>
      <use xlink:href="#DejaVuSans-73" x="427.880859"/>
      <use xlink:href="#DejaVuSans-77" x="479.980469"/>
     </g>
    </g>
    <g id="patch_46">
     <path d="M 644.305937 74.741275 
L 664.305937 74.741275 
L 664.305937 67.741275 
L 644.305937 67.741275 
z
" style="fill: #a6d854"/>
    </g>
    <g id="text_19">
     <!-- pyalign -->
     <g transform="translate(672.305937 74.741275)scale(0.1 -0.1)">
      <use xlink:href="#DejaVuSans-70"/>
      <use xlink:href="#DejaVuSans-79" x="63.476562"/>
      <use xlink:href="#DejaVuSans-61" x="122.65625"/>
      <use xlink:href="#DejaVuSans-6c" x="183.935547"/>
      <use xlink:href="#DejaVuSans-69" x="211.71875"/>
      <use xlink:href="#DejaVuSans-67" x="239.501953"/>
      <use xlink:href="#DejaVuSans-6e" x="302.978516"/>
     </g>
    </g>
    <g id="patch_47">
     <path d="M 644.305937 89.4194 
L 664.305937 89.4194 
L 664.305937 82.4194 
L 644.305937 82.4194 
z
" style="fill: #ffd92f"/>
    </g>
    <g id="text_20">
     <!-- pyalign +SIMD-128 -->
     <g transform="translate(672.305937 89.4194)scale(0.1 -0.1)">
      <defs>
       <path id="DejaVuSans-2b" d="M 2944 4013 
L 2944 2272 
L 4684 2272 
L 4684 1741 
L 2944 1741 
L 2944 0 
L 2419 0 
L 2419 1741 
L 678 1741 
L 678 2272 
L 2419 2272 
L 2419 4013 
L 2944 4013 
z
" transform="scale(0.015625)"/>
       <path id="DejaVuSans-53" d="M 3425 4513 
L 3425 3897 
Q 3066 4069 2747 4153 
Q 2428 4238 2131 4238 
Q 1616 4238 1336 4038 
Q 1056 3838 1056 3469 
Q 1056 3159 1242 3001 
Q 1428 2844 1947 2747 
L 2328 2669 
Q 3034 2534 3370 2195 
Q 3706 1856 3706 1288 
Q 3706 609 3251 259 
Q 2797 -91 1919 -91 
Q 1588 -91 1214 -16 
Q 841 59 441 206 
L 441 856 
Q 825 641 1194 531 
Q 1563 422 1919 422 
Q 2459 422 2753 634 
Q 3047 847 3047 1241 
Q 3047 1584 2836 1778 
Q 2625 1972 2144 2069 
L 1759 2144 
Q 1053 2284 737 2584 
Q 422 2884 422 3419 
Q 422 4038 858 4394 
Q 1294 4750 2059 4750 
Q 2388 4750 2728 4690 
Q 3069 4631 3425 4513 
z
" transform="scale(0.015625)"/>
       <path id="DejaVuSans-49" d="M 628 4666 
L 1259 4666 
L 1259 0 
L 628 0 
L 628 4666 
z
" transform="scale(0.015625)"/>
       <path id="DejaVuSans-4d" d="M 628 4666 
L 1569 4666 
L 2759 1491 
L 3956 4666 
L 4897 4666 
L 4897 0 
L 4281 0 
L 4281 4097 
L 3078 897 
L 2444 897 
L 1241 4097 
L 1241 0 
L 628 0 
L 628 4666 
z
" transform="scale(0.015625)"/>
       <path id="DejaVuSans-44" d="M 1259 4147 
L 1259 519 
L 2022 519 
Q 2988 519 3436 956 
Q 3884 1394 3884 2338 
Q 3884 3275 3436 3711 
Q 2988 4147 2022 4147 
L 1259 4147 
z
M 628 4666 
L 1925 4666 
Q 3281 4666 3915 4102 
Q 4550 3538 4550 2338 
Q 4550 1131 3912 565 
Q 3275 0 1925 0 
L 628 0 
L 628 4666 
z
" transform="scale(0.015625)"/>
       <path id="DejaVuSans-2d" d="M 313 2009 
L 1997 2009 
L 1997 1497 
L 313 1497 
L 313 2009 
z
" transform="scale(0.015625)"/>
      </defs>
      <use xlink:href="#DejaVuSans-70"/>
      <use xlink:href="#DejaVuSans-79" x="63.476562"/>
      <use xlink:href="#DejaVuSans-61" x="122.65625"/>
      <use xlink:href="#DejaVuSans-6c" x="183.935547"/>
      <use xlink:href="#DejaVuSans-69" x="211.71875"/>
      <use xlink:href="#DejaVuSans-67" x="239.501953"/>
      <use xlink:href="#DejaVuSans-6e" x="302.978516"/>
      <use xlink:href="#DejaVuSans-20" x="366.357422"/>
      <use xlink:href="#DejaVuSans-2b" x="398.144531"/>
      <use xlink:href="#DejaVuSans-53" x="481.933594"/>
      <use xlink:href="#DejaVuSans-49" x="545.410156"/>
      <use xlink:href="#DejaVuSans-4d" x="574.902344"/>
      <use xlink:href="#DejaVuSans-44" x="661.181641"/>
      <use xlink:href="#DejaVuSans-2d" x="738.183594"/>
      <use xlink:href="#DejaVuSans-31" x="774.267578"/>
      <use xlink:href="#DejaVuSans-32" x="837.890625"/>
      <use xlink:href="#DejaVuSans-38" x="901.513672"/>
     </g>
    </g>
    <g id="patch_48">
     <path d="M 644.305937 104.097525 
L 664.305937 104.097525 
L 664.305937 97.097525 
L 644.305937 97.097525 
z
" style="fill: #e5c494"/>
    </g>
    <g id="text_21">
     <!-- pyalign +alphabet -->
     <g transform="translate(672.305937 104.097525)scale(0.1 -0.1)">
      <defs>
       <path id="DejaVuSans-62" d="M 3116 1747 
Q 3116 2381 2855 2742 
Q 2594 3103 2138 3103 
Q 1681 3103 1420 2742 
Q 1159 2381 1159 1747 
Q 1159 1113 1420 752 
Q 1681 391 2138 391 
Q 2594 391 2855 752 
Q 3116 1113 3116 1747 
z
M 1159 2969 
Q 1341 3281 1617 3432 
Q 1894 3584 2278 3584 
Q 2916 3584 3314 3078 
Q 3713 2572 3713 1747 
Q 3713 922 3314 415 
Q 2916 -91 2278 -91 
Q 1894 -91 1617 61 
Q 1341 213 1159 525 
L 1159 0 
L 581 0 
L 581 4863 
L 1159 4863 
L 1159 2969 
z
" transform="scale(0.015625)"/>
      </defs>
      <use xlink:href="#DejaVuSans-70"/>
      <use xlink:href="#DejaVuSans-79" x="63.476562"/>
      <use xlink:href="#DejaVuSans-61" x="122.65625"/>
      <use xlink:href="#DejaVuSans-6c" x="183.935547"/>
      <use xlink:href="#DejaVuSans-69" x="211.71875"/>
      <use xlink:href="#DejaVuSans-67" x="239.501953"/>
      <use xlink:href="#DejaVuSans-6e" x="302.978516"/>
      <use xlink:href="#DejaVuSans-20" x="366.357422"/>
      <use xlink:href="#DejaVuSans-2b" x="398.144531"/>
      <use xlink:href="#DejaVuSans-61" x="481.933594"/>
      <use xlink:href="#DejaVuSans-6c" x="543.212891"/>
      <use xlink:href="#DejaVuSans-70" x="570.996094"/>
      <use xlink:href="#DejaVuSans-68" x="634.472656"/>
      <use xlink:href="#DejaVuSans-61" x="697.851562"/>
      <use xlink:href="#DejaVuSans-62" x="759.130859"/>
      <use xlink:href="#DejaVuSans-65" x="822.607422"/>
      <use xlink:href="#DejaVuSans-74" x="884.130859"/>
     </g>
    </g>
    <g id="patch_49">
     <path d="M 644.305937 118.77565 
L 664.305937 118.77565 
L 664.305937 111.77565 
L 644.305937 111.77565 
z
" style="fill: #b3b3b3"/>
    </g>
    <g id="text_22">
     <!-- pyalign +alphabet +SIMD-128 -->
     <g transform="translate(672.305937 118.77565)scale(0.1 -0.1)">
      <use xlink:href="#DejaVuSans-70"/>
      <use xlink:href="#DejaVuSans-79" x="63.476562"/>
      <use xlink:href="#DejaVuSans-61" x="122.65625"/>
      <use xlink:href="#DejaVuSans-6c" x="183.935547"/>
      <use xlink:href="#DejaVuSans-69" x="211.71875"/>
      <use xlink:href="#DejaVuSans-67" x="239.501953"/>
      <use xlink:href="#DejaVuSans-6e" x="302.978516"/>
      <use xlink:href="#DejaVuSans-20" x="366.357422"/>
      <use xlink:href="#DejaVuSans-2b" x="398.144531"/>
      <use xlink:href="#DejaVuSans-61" x="481.933594"/>
      <use xlink:href="#DejaVuSans-6c" x="543.212891"/>
      <use xlink:href="#DejaVuSans-70" x="570.996094"/>
      <use xlink:href="#DejaVuSans-68" x="634.472656"/>
      <use xlink:href="#DejaVuSans-61" x="697.851562"/>
      <use xlink:href="#DejaVuSans-62" x="759.130859"/>
      <use xlink:href="#DejaVuSans-65" x="822.607422"/>
      <use xlink:href="#DejaVuSans-74" x="884.130859"/>
      <use xlink:href="#DejaVuSans-20" x="923.339844"/>
      <use xlink:href="#DejaVuSans-2b" x="955.126953"/>
      <use xlink:href="#DejaVuSans-53" x="1038.916016"/>
      <use xlink:href="#DejaVuSans-49" x="1102.392578"/>
      <use xlink:href="#DejaVuSans-4d" x="1131.884766"/>
      <use xlink:href="#DejaVuSans-44" x="1218.164062"/>
      <use xlink:href="#DejaVuSans-2d" x="1295.166016"/>
      <use xlink:href="#DejaVuSans-31" x="1331.25"/>
      <use xlink:href="#DejaVuSans-32" x="1394.873047"/>
      <use xlink:href="#DejaVuSans-38" x="1458.496094"/>
     </g>
    </g>
   </g>
  </g>
 </g>
 <defs>
  <clipPath id="pd1be2a62a2">
   <rect x="53.328125" y="35.7555" width="600.15" height="362.264"/>
  </clipPath>
 </defs>
</svg>
