<?xml version="1.0" encoding="utf-8" standalone="no"?>
<!DOCTYPE svg PUBLIC "-//W3C//DTD SVG 1.1//EN"
  "http://www.w3.org/Graphics/SVG/1.1/DTD/svg11.dtd">
<svg height="335.173434pt" version="1.1" viewBox="0 0 453.358125 335.173434" width="453.358125pt" xmlns="http://www.w3.org/2000/svg" xmlns:xlink="http://www.w3.org/1999/xlink">
 <metadata>
  <rdf:RDF xmlns:cc="http://creativecommons.org/ns#" xmlns:dc="http://purl.org/dc/elements/1.1/" xmlns:rdf="http://www.w3.org/1999/02/22-rdf-syntax-ns#">
   <cc:Work>
    <dc:type rdf:resource="http://purl.org/dc/dcmitype/StillImage"/>
    <dc:date>2021-07-06T15:48:37.287117</dc:date>
    <dc:format>image/svg+xml</dc:format>
    <dc:creator>
     <cc:Agent>
      <dc:title>Matplotlib v3.4.2, https://matplotlib.org/</dc:title>
     </cc:Agent>
    </dc:creator>
   </cc:Work>
  </rdf:RDF>
 </metadata>
 <defs>
  <style type="text/css">*{stroke-linecap:butt;stroke-linejoin:round;}</style>
 </defs>
 <g id="figure_1">
  <g id="patch_1">
   <path d="M 0 335.173434 
L 453.358125 335.173434 
L 453.358125 0 
L 0 0 
z
" style="fill:#ffffff;"/>
  </g>
  <g id="axes_1">
   <g id="patch_2">
    <path d="M 53.328125 256.303436 
L 446.158125 256.303436 
L 446.158125 35.7555 
L 53.328125 35.7555 
z
" style="fill:#ffffff;"/>
   </g>
   <g id="patch_3">
    <path clip-path="url(#p95a700fb14)" d="M 71.184034 102109.867546 
L 84.302661 102109.867546 
L 84.302661 52.310876 
L 71.184034 52.310876 
z
" style="fill:#8dd3c7;"/>
   </g>
   <g id="patch_4">
    <path clip-path="url(#p95a700fb14)" d="M 144.065296 102109.867546 
L 157.183923 102109.867546 
L 157.183923 45.780406 
L 144.065296 45.780406 
z
" style="fill:#8dd3c7;"/>
   </g>
   <g id="patch_5">
    <path clip-path="url(#p95a700fb14)" style="fill:#8dd3c7;"/>
   </g>
   <g id="patch_6">
    <path clip-path="url(#p95a700fb14)" style="fill:#8dd3c7;"/>
   </g>
   <g id="patch_7">
    <path clip-path="url(#p95a700fb14)" style="fill:#8dd3c7;"/>
   </g>
   <g id="patch_8">
    <path clip-path="url(#p95a700fb14)" d="M 84.302661 102109.867546 
L 97.421288 102109.867546 
L 97.421288 121.511087 
L 84.302661 121.511087 
z
" style="fill:#fb8072;"/>
   </g>
   <g id="patch_9">
    <path clip-path="url(#p95a700fb14)" d="M 157.183923 102109.867546 
L 170.30255 102109.867546 
L 170.30255 121.075704 
L 157.183923 121.075704 
z
" style="fill:#fb8072;"/>
   </g>
   <g id="patch_10">
    <path clip-path="url(#p95a700fb14)" d="M 230.065184 102109.867546 
L 243.183811 102109.867546 
L 243.183811 119.794712 
L 230.065184 119.794712 
z
" style="fill:#fb8072;"/>
   </g>
   <g id="patch_11">
    <path clip-path="url(#p95a700fb14)" d="M 302.946446 102109.867546 
L 316.065073 102109.867546 
L 316.065073 77.247042 
L 302.946446 77.247042 
z
" style="fill:#fb8072;"/>
   </g>
   <g id="patch_12">
    <path clip-path="url(#p95a700fb14)" d="M 375.827708 102109.867546 
L 388.946335 102109.867546 
L 388.946335 77.006655 
L 375.827708 77.006655 
z
" style="fill:#fb8072;"/>
   </g>
   <g id="patch_13">
    <path clip-path="url(#p95a700fb14)" d="M 97.421288 102109.867546 
L 110.539915 102109.867546 
L 110.539915 127.349526 
L 97.421288 127.349526 
z
" style="fill:#b3de69;"/>
   </g>
   <g id="patch_14">
    <path clip-path="url(#p95a700fb14)" d="M 170.30255 102109.867546 
L 183.421177 102109.867546 
L 183.421177 126.606801 
L 170.30255 126.606801 
z
" style="fill:#b3de69;"/>
   </g>
   <g id="patch_15">
    <path clip-path="url(#p95a700fb14)" d="M 243.183811 102109.867546 
L 256.302439 102109.867546 
L 256.302439 125.876353 
L 243.183811 125.876353 
z
" style="fill:#b3de69;"/>
   </g>
   <g id="patch_16">
    <path clip-path="url(#p95a700fb14)" d="M 316.065073 102109.867546 
L 329.1837 102109.867546 
L 329.1837 112.266962 
L 316.065073 112.266962 
z
" style="fill:#b3de69;"/>
   </g>
   <g id="patch_17">
    <path clip-path="url(#p95a700fb14)" d="M 388.946335 102109.867546 
L 402.064962 102109.867546 
L 402.064962 112.266962 
L 388.946335 112.266962 
z
" style="fill:#b3de69;"/>
   </g>
   <g id="patch_18">
    <path clip-path="url(#p95a700fb14)" d="M 110.539915 102109.867546 
L 123.658542 102109.867546 
L 123.658542 197.72964 
L 110.539915 197.72964 
z
" style="fill:#bc80bd;"/>
   </g>
   <g id="patch_19">
    <path clip-path="url(#p95a700fb14)" d="M 183.421177 102109.867546 
L 196.539804 102109.867546 
L 196.539804 184.105462 
L 183.421177 184.105462 
z
" style="fill:#bc80bd;"/>
   </g>
   <g id="patch_20">
    <path clip-path="url(#p95a700fb14)" d="M 256.302439 102109.867546 
L 269.421066 102109.867546 
L 269.421066 189.877712 
L 256.302439 189.877712 
z
" style="fill:#bc80bd;"/>
   </g>
   <g id="patch_21">
    <path clip-path="url(#p95a700fb14)" d="M 329.1837 102109.867546 
L 342.302327 102109.867546 
L 342.302327 93.008902 
L 329.1837 93.008902 
z
" style="fill:#bc80bd;"/>
   </g>
   <g id="patch_22">
    <path clip-path="url(#p95a700fb14)" d="M 402.064962 102109.867546 
L 415.183589 102109.867546 
L 415.183589 92.438686 
L 402.064962 92.438686 
z
" style="fill:#bc80bd;"/>
   </g>
   <g id="patch_23">
    <path clip-path="url(#p95a700fb14)" d="M 123.658542 102109.867546 
L 136.77717 102109.867546 
L 136.77717 246.27853 
L 123.658542 246.27853 
z
" style="fill:#ffed6f;"/>
   </g>
   <g id="patch_24">
    <path clip-path="url(#p95a700fb14)" d="M 196.539804 102109.867546 
L 209.658431 102109.867546 
L 209.658431 236.41757 
L 196.539804 236.41757 
z
" style="fill:#ffed6f;"/>
   </g>
   <g id="patch_25">
    <path clip-path="url(#p95a700fb14)" d="M 269.421066 102109.867546 
L 282.539693 102109.867546 
L 282.539693 225.971289 
L 269.421066 225.971289 
z
" style="fill:#ffed6f;"/>
   </g>
   <g id="patch_26">
    <path clip-path="url(#p95a700fb14)" d="M 342.302327 102109.867546 
L 355.420954 102109.867546 
L 355.420954 158.230841 
L 342.302327 158.230841 
z
" style="fill:#ffed6f;"/>
   </g>
   <g id="patch_27">
    <path clip-path="url(#p95a700fb14)" d="M 415.183589 102109.867546 
L 428.302216 102109.867546 
L 428.302216 157.731501 
L 415.183589 157.731501 
z
" style="fill:#ffed6f;"/>
   </g>
   <g id="matplotlib.axis_1">
    <g id="xtick_1">
     <g id="line2d_1">
      <path clip-path="url(#p95a700fb14)" d="M 103.980602 256.303436 
L 103.980602 35.7555 
" style="fill:none;stroke:#b0b0b0;stroke-linecap:square;stroke-opacity:0.25;stroke-width:0.8;"/>
     </g>
     <g id="line2d_2">
      <defs>
       <path d="M 0 0 
L 0 3.5 
" id="md5b3ce83a6" style="stroke:#000000;stroke-width:0.8;"/>
      </defs>
      <g>
       <use style="stroke:#000000;stroke-width:0.8;" x="103.980602" xlink:href="#md5b3ce83a6" y="256.303436"/>
      </g>
     </g>
     <g id="text_1">
      <!-- score -->
      <g transform="translate(92.474317 303.129016)rotate(-45)scale(0.1 -0.1)">
       <defs>
        <path d="M 2834 3397 
L 2834 2853 
Q 2591 2978 2328 3040 
Q 2066 3103 1784 3103 
Q 1356 3103 1142 2972 
Q 928 2841 928 2578 
Q 928 2378 1081 2264 
Q 1234 2150 1697 2047 
L 1894 2003 
Q 2506 1872 2764 1633 
Q 3022 1394 3022 966 
Q 3022 478 2636 193 
Q 2250 -91 1575 -91 
Q 1294 -91 989 -36 
Q 684 19 347 128 
L 347 722 
Q 666 556 975 473 
Q 1284 391 1588 391 
Q 1994 391 2212 530 
Q 2431 669 2431 922 
Q 2431 1156 2273 1281 
Q 2116 1406 1581 1522 
L 1381 1569 
Q 847 1681 609 1914 
Q 372 2147 372 2553 
Q 372 3047 722 3315 
Q 1072 3584 1716 3584 
Q 2034 3584 2315 3537 
Q 2597 3491 2834 3397 
z
" id="DejaVuSans-73" transform="scale(0.015625)"/>
        <path d="M 3122 3366 
L 3122 2828 
Q 2878 2963 2633 3030 
Q 2388 3097 2138 3097 
Q 1578 3097 1268 2742 
Q 959 2388 959 1747 
Q 959 1106 1268 751 
Q 1578 397 2138 397 
Q 2388 397 2633 464 
Q 2878 531 3122 666 
L 3122 134 
Q 2881 22 2623 -34 
Q 2366 -91 2075 -91 
Q 1284 -91 818 406 
Q 353 903 353 1747 
Q 353 2603 823 3093 
Q 1294 3584 2113 3584 
Q 2378 3584 2631 3529 
Q 2884 3475 3122 3366 
z
" id="DejaVuSans-63" transform="scale(0.015625)"/>
        <path d="M 1959 3097 
Q 1497 3097 1228 2736 
Q 959 2375 959 1747 
Q 959 1119 1226 758 
Q 1494 397 1959 397 
Q 2419 397 2687 759 
Q 2956 1122 2956 1747 
Q 2956 2369 2687 2733 
Q 2419 3097 1959 3097 
z
M 1959 3584 
Q 2709 3584 3137 3096 
Q 3566 2609 3566 1747 
Q 3566 888 3137 398 
Q 2709 -91 1959 -91 
Q 1206 -91 779 398 
Q 353 888 353 1747 
Q 353 2609 779 3096 
Q 1206 3584 1959 3584 
z
" id="DejaVuSans-6f" transform="scale(0.015625)"/>
        <path d="M 2631 2963 
Q 2534 3019 2420 3045 
Q 2306 3072 2169 3072 
Q 1681 3072 1420 2755 
Q 1159 2438 1159 1844 
L 1159 0 
L 581 0 
L 581 3500 
L 1159 3500 
L 1159 2956 
Q 1341 3275 1631 3429 
Q 1922 3584 2338 3584 
Q 2397 3584 2469 3576 
Q 2541 3569 2628 3553 
L 2631 2963 
z
" id="DejaVuSans-72" transform="scale(0.015625)"/>
        <path d="M 3597 1894 
L 3597 1613 
L 953 1613 
Q 991 1019 1311 708 
Q 1631 397 2203 397 
Q 2534 397 2845 478 
Q 3156 559 3463 722 
L 3463 178 
Q 3153 47 2828 -22 
Q 2503 -91 2169 -91 
Q 1331 -91 842 396 
Q 353 884 353 1716 
Q 353 2575 817 3079 
Q 1281 3584 2069 3584 
Q 2775 3584 3186 3129 
Q 3597 2675 3597 1894 
z
M 3022 2063 
Q 3016 2534 2758 2815 
Q 2500 3097 2075 3097 
Q 1594 3097 1305 2825 
Q 1016 2553 972 2059 
L 3022 2063 
z
" id="DejaVuSans-65" transform="scale(0.015625)"/>
       </defs>
       <use xlink:href="#DejaVuSans-73"/>
       <use x="52.099609" xlink:href="#DejaVuSans-63"/>
       <use x="107.080078" xlink:href="#DejaVuSans-6f"/>
       <use x="168.261719" xlink:href="#DejaVuSans-72"/>
       <use x="207.125" xlink:href="#DejaVuSans-65"/>
      </g>
      <!-- [one, optimal] -->
      <g transform="translate(84.936559 326.502873)rotate(-45)scale(0.1 -0.1)">
       <defs>
        <path d="M 550 4863 
L 1875 4863 
L 1875 4416 
L 1125 4416 
L 1125 -397 
L 1875 -397 
L 1875 -844 
L 550 -844 
L 550 4863 
z
" id="DejaVuSans-5b" transform="scale(0.015625)"/>
        <path d="M 3513 2113 
L 3513 0 
L 2938 0 
L 2938 2094 
Q 2938 2591 2744 2837 
Q 2550 3084 2163 3084 
Q 1697 3084 1428 2787 
Q 1159 2491 1159 1978 
L 1159 0 
L 581 0 
L 581 3500 
L 1159 3500 
L 1159 2956 
Q 1366 3272 1645 3428 
Q 1925 3584 2291 3584 
Q 2894 3584 3203 3211 
Q 3513 2838 3513 2113 
z
" id="DejaVuSans-6e" transform="scale(0.015625)"/>
        <path d="M 750 794 
L 1409 794 
L 1409 256 
L 897 -744 
L 494 -744 
L 750 256 
L 750 794 
z
" id="DejaVuSans-2c" transform="scale(0.015625)"/>
        <path id="DejaVuSans-20" transform="scale(0.015625)"/>
        <path d="M 1159 525 
L 1159 -1331 
L 581 -1331 
L 581 3500 
L 1159 3500 
L 1159 2969 
Q 1341 3281 1617 3432 
Q 1894 3584 2278 3584 
Q 2916 3584 3314 3078 
Q 3713 2572 3713 1747 
Q 3713 922 3314 415 
Q 2916 -91 2278 -91 
Q 1894 -91 1617 61 
Q 1341 213 1159 525 
z
M 3116 1747 
Q 3116 2381 2855 2742 
Q 2594 3103 2138 3103 
Q 1681 3103 1420 2742 
Q 1159 2381 1159 1747 
Q 1159 1113 1420 752 
Q 1681 391 2138 391 
Q 2594 391 2855 752 
Q 3116 1113 3116 1747 
z
" id="DejaVuSans-70" transform="scale(0.015625)"/>
        <path d="M 1172 4494 
L 1172 3500 
L 2356 3500 
L 2356 3053 
L 1172 3053 
L 1172 1153 
Q 1172 725 1289 603 
Q 1406 481 1766 481 
L 2356 481 
L 2356 0 
L 1766 0 
Q 1100 0 847 248 
Q 594 497 594 1153 
L 594 3053 
L 172 3053 
L 172 3500 
L 594 3500 
L 594 4494 
L 1172 4494 
z
" id="DejaVuSans-74" transform="scale(0.015625)"/>
        <path d="M 603 3500 
L 1178 3500 
L 1178 0 
L 603 0 
L 603 3500 
z
M 603 4863 
L 1178 4863 
L 1178 4134 
L 603 4134 
L 603 4863 
z
" id="DejaVuSans-69" transform="scale(0.015625)"/>
        <path d="M 3328 2828 
Q 3544 3216 3844 3400 
Q 4144 3584 4550 3584 
Q 5097 3584 5394 3201 
Q 5691 2819 5691 2113 
L 5691 0 
L 5113 0 
L 5113 2094 
Q 5113 2597 4934 2840 
Q 4756 3084 4391 3084 
Q 3944 3084 3684 2787 
Q 3425 2491 3425 1978 
L 3425 0 
L 2847 0 
L 2847 2094 
Q 2847 2600 2669 2842 
Q 2491 3084 2119 3084 
Q 1678 3084 1418 2786 
Q 1159 2488 1159 1978 
L 1159 0 
L 581 0 
L 581 3500 
L 1159 3500 
L 1159 2956 
Q 1356 3278 1631 3431 
Q 1906 3584 2284 3584 
Q 2666 3584 2933 3390 
Q 3200 3197 3328 2828 
z
" id="DejaVuSans-6d" transform="scale(0.015625)"/>
        <path d="M 2194 1759 
Q 1497 1759 1228 1600 
Q 959 1441 959 1056 
Q 959 750 1161 570 
Q 1363 391 1709 391 
Q 2188 391 2477 730 
Q 2766 1069 2766 1631 
L 2766 1759 
L 2194 1759 
z
M 3341 1997 
L 3341 0 
L 2766 0 
L 2766 531 
Q 2569 213 2275 61 
Q 1981 -91 1556 -91 
Q 1019 -91 701 211 
Q 384 513 384 1019 
Q 384 1609 779 1909 
Q 1175 2209 1959 2209 
L 2766 2209 
L 2766 2266 
Q 2766 2663 2505 2880 
Q 2244 3097 1772 3097 
Q 1472 3097 1187 3025 
Q 903 2953 641 2809 
L 641 3341 
Q 956 3463 1253 3523 
Q 1550 3584 1831 3584 
Q 2591 3584 2966 3190 
Q 3341 2797 3341 1997 
z
" id="DejaVuSans-61" transform="scale(0.015625)"/>
        <path d="M 603 4863 
L 1178 4863 
L 1178 0 
L 603 0 
L 603 4863 
z
" id="DejaVuSans-6c" transform="scale(0.015625)"/>
        <path d="M 1947 4863 
L 1947 -844 
L 622 -844 
L 622 -397 
L 1369 -397 
L 1369 4416 
L 622 4416 
L 622 4863 
L 1947 4863 
z
" id="DejaVuSans-5d" transform="scale(0.015625)"/>
       </defs>
       <use xlink:href="#DejaVuSans-5b"/>
       <use x="39.013672" xlink:href="#DejaVuSans-6f"/>
       <use x="100.195312" xlink:href="#DejaVuSans-6e"/>
       <use x="163.574219" xlink:href="#DejaVuSans-65"/>
       <use x="225.097656" xlink:href="#DejaVuSans-2c"/>
       <use x="256.884766" xlink:href="#DejaVuSans-20"/>
       <use x="288.671875" xlink:href="#DejaVuSans-6f"/>
       <use x="349.853516" xlink:href="#DejaVuSans-70"/>
       <use x="413.330078" xlink:href="#DejaVuSans-74"/>
       <use x="452.539062" xlink:href="#DejaVuSans-69"/>
       <use x="480.322266" xlink:href="#DejaVuSans-6d"/>
       <use x="577.734375" xlink:href="#DejaVuSans-61"/>
       <use x="639.013672" xlink:href="#DejaVuSans-6c"/>
       <use x="666.796875" xlink:href="#DejaVuSans-5d"/>
      </g>
     </g>
    </g>
    <g id="xtick_2">
     <g id="line2d_3">
      <path clip-path="url(#p95a700fb14)" d="M 176.861863 256.303436 
L 176.861863 35.7555 
" style="fill:none;stroke:#b0b0b0;stroke-linecap:square;stroke-opacity:0.25;stroke-width:0.8;"/>
     </g>
     <g id="line2d_4">
      <g>
       <use style="stroke:#000000;stroke-width:0.8;" x="176.861863" xlink:href="#md5b3ce83a6" y="256.303436"/>
      </g>
     </g>
     <g id="text_2">
      <!-- alignment -->
      <g transform="translate(156.991831 311.492764)rotate(-45)scale(0.1 -0.1)">
       <defs>
        <path d="M 2906 1791 
Q 2906 2416 2648 2759 
Q 2391 3103 1925 3103 
Q 1463 3103 1205 2759 
Q 947 2416 947 1791 
Q 947 1169 1205 825 
Q 1463 481 1925 481 
Q 2391 481 2648 825 
Q 2906 1169 2906 1791 
z
M 3481 434 
Q 3481 -459 3084 -895 
Q 2688 -1331 1869 -1331 
Q 1566 -1331 1297 -1286 
Q 1028 -1241 775 -1147 
L 775 -588 
Q 1028 -725 1275 -790 
Q 1522 -856 1778 -856 
Q 2344 -856 2625 -561 
Q 2906 -266 2906 331 
L 2906 616 
Q 2728 306 2450 153 
Q 2172 0 1784 0 
Q 1141 0 747 490 
Q 353 981 353 1791 
Q 353 2603 747 3093 
Q 1141 3584 1784 3584 
Q 2172 3584 2450 3431 
Q 2728 3278 2906 2969 
L 2906 3500 
L 3481 3500 
L 3481 434 
z
" id="DejaVuSans-67" transform="scale(0.015625)"/>
       </defs>
       <use xlink:href="#DejaVuSans-61"/>
       <use x="61.279297" xlink:href="#DejaVuSans-6c"/>
       <use x="89.0625" xlink:href="#DejaVuSans-69"/>
       <use x="116.845703" xlink:href="#DejaVuSans-67"/>
       <use x="180.322266" xlink:href="#DejaVuSans-6e"/>
       <use x="243.701172" xlink:href="#DejaVuSans-6d"/>
       <use x="341.113281" xlink:href="#DejaVuSans-65"/>
       <use x="402.636719" xlink:href="#DejaVuSans-6e"/>
       <use x="466.015625" xlink:href="#DejaVuSans-74"/>
      </g>
      <!-- [one, optimal] -->
      <g transform="translate(157.817821 326.502873)rotate(-45)scale(0.1 -0.1)">
       <use xlink:href="#DejaVuSans-5b"/>
       <use x="39.013672" xlink:href="#DejaVuSans-6f"/>
       <use x="100.195312" xlink:href="#DejaVuSans-6e"/>
       <use x="163.574219" xlink:href="#DejaVuSans-65"/>
       <use x="225.097656" xlink:href="#DejaVuSans-2c"/>
       <use x="256.884766" xlink:href="#DejaVuSans-20"/>
       <use x="288.671875" xlink:href="#DejaVuSans-6f"/>
       <use x="349.853516" xlink:href="#DejaVuSans-70"/>
       <use x="413.330078" xlink:href="#DejaVuSans-74"/>
       <use x="452.539062" xlink:href="#DejaVuSans-69"/>
       <use x="480.322266" xlink:href="#DejaVuSans-6d"/>
       <use x="577.734375" xlink:href="#DejaVuSans-61"/>
       <use x="639.013672" xlink:href="#DejaVuSans-6c"/>
       <use x="666.796875" xlink:href="#DejaVuSans-5d"/>
      </g>
     </g>
    </g>
    <g id="xtick_3">
     <g id="line2d_5">
      <path clip-path="url(#p95a700fb14)" d="M 249.743125 256.303436 
L 249.743125 35.7555 
" style="fill:none;stroke:#b0b0b0;stroke-linecap:square;stroke-opacity:0.25;stroke-width:0.8;"/>
     </g>
     <g id="line2d_6">
      <g>
       <use style="stroke:#000000;stroke-width:0.8;" x="249.743125" xlink:href="#md5b3ce83a6" y="256.303436"/>
      </g>
     </g>
     <g id="text_3">
      <!-- solution -->
      <g transform="translate(233.735111 307.630745)rotate(-45)scale(0.1 -0.1)">
       <defs>
        <path d="M 544 1381 
L 544 3500 
L 1119 3500 
L 1119 1403 
Q 1119 906 1312 657 
Q 1506 409 1894 409 
Q 2359 409 2629 706 
Q 2900 1003 2900 1516 
L 2900 3500 
L 3475 3500 
L 3475 0 
L 2900 0 
L 2900 538 
Q 2691 219 2414 64 
Q 2138 -91 1772 -91 
Q 1169 -91 856 284 
Q 544 659 544 1381 
z
M 1991 3584 
L 1991 3584 
z
" id="DejaVuSans-75" transform="scale(0.015625)"/>
       </defs>
       <use xlink:href="#DejaVuSans-73"/>
       <use x="52.099609" xlink:href="#DejaVuSans-6f"/>
       <use x="113.28125" xlink:href="#DejaVuSans-6c"/>
       <use x="141.064453" xlink:href="#DejaVuSans-75"/>
       <use x="204.443359" xlink:href="#DejaVuSans-74"/>
       <use x="243.652344" xlink:href="#DejaVuSans-69"/>
       <use x="271.435547" xlink:href="#DejaVuSans-6f"/>
       <use x="332.617188" xlink:href="#DejaVuSans-6e"/>
      </g>
      <!-- [one, optimal] -->
      <g transform="translate(230.699082 326.502873)rotate(-45)scale(0.1 -0.1)">
       <use xlink:href="#DejaVuSans-5b"/>
       <use x="39.013672" xlink:href="#DejaVuSans-6f"/>
       <use x="100.195312" xlink:href="#DejaVuSans-6e"/>
       <use x="163.574219" xlink:href="#DejaVuSans-65"/>
       <use x="225.097656" xlink:href="#DejaVuSans-2c"/>
       <use x="256.884766" xlink:href="#DejaVuSans-20"/>
       <use x="288.671875" xlink:href="#DejaVuSans-6f"/>
       <use x="349.853516" xlink:href="#DejaVuSans-70"/>
       <use x="413.330078" xlink:href="#DejaVuSans-74"/>
       <use x="452.539062" xlink:href="#DejaVuSans-69"/>
       <use x="480.322266" xlink:href="#DejaVuSans-6d"/>
       <use x="577.734375" xlink:href="#DejaVuSans-61"/>
       <use x="639.013672" xlink:href="#DejaVuSans-6c"/>
       <use x="666.796875" xlink:href="#DejaVuSans-5d"/>
      </g>
     </g>
    </g>
    <g id="xtick_4">
     <g id="line2d_7">
      <path clip-path="url(#p95a700fb14)" d="M 322.624387 256.303436 
L 322.624387 35.7555 
" style="fill:none;stroke:#b0b0b0;stroke-linecap:square;stroke-opacity:0.25;stroke-width:0.8;"/>
     </g>
     <g id="line2d_8">
      <g>
       <use style="stroke:#000000;stroke-width:0.8;" x="322.624387" xlink:href="#md5b3ce83a6" y="256.303436"/>
      </g>
     </g>
     <g id="text_4">
      <!-- alignment -->
      <g transform="translate(302.754355 309.044406)rotate(-45)scale(0.1 -0.1)">
       <use xlink:href="#DejaVuSans-61"/>
       <use x="61.279297" xlink:href="#DejaVuSans-6c"/>
       <use x="89.0625" xlink:href="#DejaVuSans-69"/>
       <use x="116.845703" xlink:href="#DejaVuSans-67"/>
       <use x="180.322266" xlink:href="#DejaVuSans-6e"/>
       <use x="243.701172" xlink:href="#DejaVuSans-6d"/>
       <use x="341.113281" xlink:href="#DejaVuSans-65"/>
       <use x="402.636719" xlink:href="#DejaVuSans-6e"/>
       <use x="466.015625" xlink:href="#DejaVuSans-74"/>
      </g>
      <!-- [all, optimal] -->
      <g transform="translate(306.028701 321.606158)rotate(-45)scale(0.1 -0.1)">
       <use xlink:href="#DejaVuSans-5b"/>
       <use x="39.013672" xlink:href="#DejaVuSans-61"/>
       <use x="100.292969" xlink:href="#DejaVuSans-6c"/>
       <use x="128.076172" xlink:href="#DejaVuSans-6c"/>
       <use x="155.859375" xlink:href="#DejaVuSans-2c"/>
       <use x="187.646484" xlink:href="#DejaVuSans-20"/>
       <use x="219.433594" xlink:href="#DejaVuSans-6f"/>
       <use x="280.615234" xlink:href="#DejaVuSans-70"/>
       <use x="344.091797" xlink:href="#DejaVuSans-74"/>
       <use x="383.300781" xlink:href="#DejaVuSans-69"/>
       <use x="411.083984" xlink:href="#DejaVuSans-6d"/>
       <use x="508.496094" xlink:href="#DejaVuSans-61"/>
       <use x="569.775391" xlink:href="#DejaVuSans-6c"/>
       <use x="597.558594" xlink:href="#DejaVuSans-5d"/>
      </g>
     </g>
    </g>
    <g id="xtick_5">
     <g id="line2d_9">
      <path clip-path="url(#p95a700fb14)" d="M 395.505648 256.303436 
L 395.505648 35.7555 
" style="fill:none;stroke:#b0b0b0;stroke-linecap:square;stroke-opacity:0.25;stroke-width:0.8;"/>
     </g>
     <g id="line2d_10">
      <g>
       <use style="stroke:#000000;stroke-width:0.8;" x="395.505648" xlink:href="#md5b3ce83a6" y="256.303436"/>
      </g>
     </g>
     <g id="text_5">
      <!-- solution -->
      <g transform="translate(379.497635 305.182388)rotate(-45)scale(0.1 -0.1)">
       <use xlink:href="#DejaVuSans-73"/>
       <use x="52.099609" xlink:href="#DejaVuSans-6f"/>
       <use x="113.28125" xlink:href="#DejaVuSans-6c"/>
       <use x="141.064453" xlink:href="#DejaVuSans-75"/>
       <use x="204.443359" xlink:href="#DejaVuSans-74"/>
       <use x="243.652344" xlink:href="#DejaVuSans-69"/>
       <use x="271.435547" xlink:href="#DejaVuSans-6f"/>
       <use x="332.617188" xlink:href="#DejaVuSans-6e"/>
      </g>
      <!-- [all, optimal] -->
      <g transform="translate(378.909963 321.606158)rotate(-45)scale(0.1 -0.1)">
       <use xlink:href="#DejaVuSans-5b"/>
       <use x="39.013672" xlink:href="#DejaVuSans-61"/>
       <use x="100.292969" xlink:href="#DejaVuSans-6c"/>
       <use x="128.076172" xlink:href="#DejaVuSans-6c"/>
       <use x="155.859375" xlink:href="#DejaVuSans-2c"/>
       <use x="187.646484" xlink:href="#DejaVuSans-20"/>
       <use x="219.433594" xlink:href="#DejaVuSans-6f"/>
       <use x="280.615234" xlink:href="#DejaVuSans-70"/>
       <use x="344.091797" xlink:href="#DejaVuSans-74"/>
       <use x="383.300781" xlink:href="#DejaVuSans-69"/>
       <use x="411.083984" xlink:href="#DejaVuSans-6d"/>
       <use x="508.496094" xlink:href="#DejaVuSans-61"/>
       <use x="569.775391" xlink:href="#DejaVuSans-6c"/>
       <use x="597.558594" xlink:href="#DejaVuSans-5d"/>
      </g>
     </g>
    </g>
   </g>
   <g id="matplotlib.axis_2">
    <g id="ytick_1">
     <g id="line2d_11">
      <path clip-path="url(#p95a700fb14)" d="M 53.328125 254.335521 
L 446.158125 254.335521 
" style="fill:none;stroke:#b0b0b0;stroke-linecap:square;stroke-opacity:0.25;stroke-width:0.8;"/>
     </g>
     <g id="line2d_12">
      <defs>
       <path d="M 0 0 
L -3.5 0 
" id="md4d009f3b4" style="stroke:#000000;stroke-width:0.8;"/>
      </defs>
      <g>
       <use style="stroke:#000000;stroke-width:0.8;" x="53.328125" xlink:href="#md4d009f3b4" y="254.335521"/>
      </g>
     </g>
     <g id="text_6">
      <!-- 10 -->
      <g transform="translate(33.603125 258.13474)scale(0.1 -0.1)">
       <defs>
        <path d="M 794 531 
L 1825 531 
L 1825 4091 
L 703 3866 
L 703 4441 
L 1819 4666 
L 2450 4666 
L 2450 531 
L 3481 531 
L 3481 0 
L 794 0 
L 794 531 
z
" id="DejaVuSans-31" transform="scale(0.015625)"/>
        <path d="M 2034 4250 
Q 1547 4250 1301 3770 
Q 1056 3291 1056 2328 
Q 1056 1369 1301 889 
Q 1547 409 2034 409 
Q 2525 409 2770 889 
Q 3016 1369 3016 2328 
Q 3016 3291 2770 3770 
Q 2525 4250 2034 4250 
z
M 2034 4750 
Q 2819 4750 3233 4129 
Q 3647 3509 3647 2328 
Q 3647 1150 3233 529 
Q 2819 -91 2034 -91 
Q 1250 -91 836 529 
Q 422 1150 422 2328 
Q 422 3509 836 4129 
Q 1250 4750 2034 4750 
z
" id="DejaVuSans-30" transform="scale(0.015625)"/>
       </defs>
       <use xlink:href="#DejaVuSans-31"/>
       <use x="63.623047" xlink:href="#DejaVuSans-30"/>
      </g>
     </g>
    </g>
    <g id="ytick_2">
     <g id="line2d_13">
      <path clip-path="url(#p95a700fb14)" d="M 53.328125 152.581743 
L 446.158125 152.581743 
" style="fill:none;stroke:#b0b0b0;stroke-linecap:square;stroke-opacity:0.25;stroke-width:0.8;"/>
     </g>
     <g id="line2d_14">
      <g>
       <use style="stroke:#000000;stroke-width:0.8;" x="53.328125" xlink:href="#md4d009f3b4" y="152.581743"/>
      </g>
     </g>
     <g id="text_7">
      <!-- 100 -->
      <g transform="translate(27.240625 156.380962)scale(0.1 -0.1)">
       <use xlink:href="#DejaVuSans-31"/>
       <use x="63.623047" xlink:href="#DejaVuSans-30"/>
       <use x="127.246094" xlink:href="#DejaVuSans-30"/>
      </g>
     </g>
    </g>
    <g id="ytick_3">
     <g id="line2d_15">
      <path clip-path="url(#p95a700fb14)" d="M 53.328125 50.827965 
L 446.158125 50.827965 
" style="fill:none;stroke:#b0b0b0;stroke-linecap:square;stroke-opacity:0.25;stroke-width:0.8;"/>
     </g>
     <g id="line2d_16">
      <g>
       <use style="stroke:#000000;stroke-width:0.8;" x="53.328125" xlink:href="#md4d009f3b4" y="50.827965"/>
      </g>
     </g>
     <g id="text_8">
      <!-- 1000 -->
      <g transform="translate(20.878125 54.627183)scale(0.1 -0.1)">
       <use xlink:href="#DejaVuSans-31"/>
       <use x="63.623047" xlink:href="#DejaVuSans-30"/>
       <use x="127.246094" xlink:href="#DejaVuSans-30"/>
       <use x="190.869141" xlink:href="#DejaVuSans-30"/>
      </g>
     </g>
    </g>
    <g id="ytick_4">
     <g id="line2d_17">
      <path clip-path="url(#p95a700fb14)" d="M 53.328125 236.41757 
L 446.158125 236.41757 
" style="fill:none;stroke:#b0b0b0;stroke-linecap:square;stroke-opacity:0.25;stroke-width:0.8;"/>
     </g>
     <g id="line2d_18">
      <defs>
       <path d="M 0 0 
L -2 0 
" id="m2bde278ad6" style="stroke:#000000;stroke-width:0.6;"/>
      </defs>
      <g>
       <use style="stroke:#000000;stroke-width:0.6;" x="53.328125" xlink:href="#m2bde278ad6" y="236.41757"/>
      </g>
     </g>
     <g id="text_9">
      <!-- 15 -->
      <g transform="translate(35.203125 240.216789)scale(0.1 -0.1)">
       <defs>
        <path d="M 691 4666 
L 3169 4666 
L 3169 4134 
L 1269 4134 
L 1269 2991 
Q 1406 3038 1543 3061 
Q 1681 3084 1819 3084 
Q 2600 3084 3056 2656 
Q 3513 2228 3513 1497 
Q 3513 744 3044 326 
Q 2575 -91 1722 -91 
Q 1428 -91 1123 -41 
Q 819 9 494 109 
L 494 744 
Q 775 591 1075 516 
Q 1375 441 1709 441 
Q 2250 441 2565 725 
Q 2881 1009 2881 1497 
Q 2881 1984 2565 2268 
Q 2250 2553 1709 2553 
Q 1456 2553 1204 2497 
Q 953 2441 691 2322 
L 691 4666 
z
" id="DejaVuSans-35" transform="scale(0.015625)"/>
       </defs>
       <use xlink:href="#DejaVuSans-31"/>
       <use x="63.623047" xlink:href="#DejaVuSans-35"/>
      </g>
     </g>
    </g>
    <g id="ytick_5">
     <g id="line2d_19">
      <path clip-path="url(#p95a700fb14)" d="M 53.328125 213.843622 
L 446.158125 213.843622 
" style="fill:none;stroke:#b0b0b0;stroke-linecap:square;stroke-opacity:0.25;stroke-width:0.8;"/>
     </g>
     <g id="line2d_20">
      <g>
       <use style="stroke:#000000;stroke-width:0.6;" x="53.328125" xlink:href="#m2bde278ad6" y="213.843622"/>
      </g>
     </g>
     <g id="text_10">
      <!-- 25 -->
      <g transform="translate(35.203125 217.642841)scale(0.1 -0.1)">
       <defs>
        <path d="M 1228 531 
L 3431 531 
L 3431 0 
L 469 0 
L 469 531 
Q 828 903 1448 1529 
Q 2069 2156 2228 2338 
Q 2531 2678 2651 2914 
Q 2772 3150 2772 3378 
Q 2772 3750 2511 3984 
Q 2250 4219 1831 4219 
Q 1534 4219 1204 4116 
Q 875 4013 500 3803 
L 500 4441 
Q 881 4594 1212 4672 
Q 1544 4750 1819 4750 
Q 2544 4750 2975 4387 
Q 3406 4025 3406 3419 
Q 3406 3131 3298 2873 
Q 3191 2616 2906 2266 
Q 2828 2175 2409 1742 
Q 1991 1309 1228 531 
z
" id="DejaVuSans-32" transform="scale(0.015625)"/>
       </defs>
       <use xlink:href="#DejaVuSans-32"/>
       <use x="63.623047" xlink:href="#DejaVuSans-35"/>
      </g>
     </g>
    </g>
    <g id="ytick_6">
     <g id="line2d_21">
      <path clip-path="url(#p95a700fb14)" d="M 53.328125 183.212682 
L 446.158125 183.212682 
" style="fill:none;stroke:#b0b0b0;stroke-linecap:square;stroke-opacity:0.25;stroke-width:0.8;"/>
     </g>
     <g id="line2d_22">
      <g>
       <use style="stroke:#000000;stroke-width:0.6;" x="53.328125" xlink:href="#m2bde278ad6" y="183.212682"/>
      </g>
     </g>
     <g id="text_11">
      <!-- 50 -->
      <g transform="translate(35.203125 187.011901)scale(0.1 -0.1)">
       <use xlink:href="#DejaVuSans-35"/>
       <use x="63.623047" xlink:href="#DejaVuSans-30"/>
      </g>
     </g>
    </g>
    <g id="ytick_7">
     <g id="line2d_23">
      <path clip-path="url(#p95a700fb14)" d="M 53.328125 134.663792 
L 446.158125 134.663792 
" style="fill:none;stroke:#b0b0b0;stroke-linecap:square;stroke-opacity:0.25;stroke-width:0.8;"/>
     </g>
     <g id="line2d_24">
      <g>
       <use style="stroke:#000000;stroke-width:0.6;" x="53.328125" xlink:href="#m2bde278ad6" y="134.663792"/>
      </g>
     </g>
     <g id="text_12">
      <!-- 150 -->
      <g transform="translate(28.840625 138.463011)scale(0.1 -0.1)">
       <use xlink:href="#DejaVuSans-31"/>
       <use x="63.623047" xlink:href="#DejaVuSans-35"/>
       <use x="127.246094" xlink:href="#DejaVuSans-30"/>
      </g>
     </g>
    </g>
    <g id="ytick_8">
     <g id="line2d_25">
      <path clip-path="url(#p95a700fb14)" d="M 53.328125 112.089844 
L 446.158125 112.089844 
" style="fill:none;stroke:#b0b0b0;stroke-linecap:square;stroke-opacity:0.25;stroke-width:0.8;"/>
     </g>
     <g id="line2d_26">
      <g>
       <use style="stroke:#000000;stroke-width:0.6;" x="53.328125" xlink:href="#m2bde278ad6" y="112.089844"/>
      </g>
     </g>
     <g id="text_13">
      <!-- 250 -->
      <g transform="translate(28.840625 115.889062)scale(0.1 -0.1)">
       <use xlink:href="#DejaVuSans-32"/>
       <use x="63.623047" xlink:href="#DejaVuSans-35"/>
       <use x="127.246094" xlink:href="#DejaVuSans-30"/>
      </g>
     </g>
    </g>
    <g id="ytick_9">
     <g id="line2d_27">
      <path clip-path="url(#p95a700fb14)" d="M 53.328125 81.458904 
L 446.158125 81.458904 
" style="fill:none;stroke:#b0b0b0;stroke-linecap:square;stroke-opacity:0.25;stroke-width:0.8;"/>
     </g>
     <g id="line2d_28">
      <g>
       <use style="stroke:#000000;stroke-width:0.6;" x="53.328125" xlink:href="#m2bde278ad6" y="81.458904"/>
      </g>
     </g>
     <g id="text_14">
      <!-- 500 -->
      <g transform="translate(28.840625 85.258123)scale(0.1 -0.1)">
       <use xlink:href="#DejaVuSans-35"/>
       <use x="63.623047" xlink:href="#DejaVuSans-30"/>
       <use x="127.246094" xlink:href="#DejaVuSans-30"/>
      </g>
     </g>
    </g>
    <g id="text_15">
     <!-- time in μs -->
     <g transform="translate(14.798438 170.847437)rotate(-90)scale(0.1 -0.1)">
      <defs>
       <path d="M 544 -1331 
L 544 3500 
L 1119 3500 
L 1119 1325 
Q 1119 872 1334 640 
Q 1550 409 1972 409 
Q 2434 409 2667 671 
Q 2900 934 2900 1459 
L 2900 3500 
L 3475 3500 
L 3475 806 
Q 3475 619 3529 530 
Q 3584 441 3700 441 
Q 3728 441 3778 458 
Q 3828 475 3916 513 
L 3916 50 
Q 3788 -22 3673 -56 
Q 3559 -91 3450 -91 
Q 3234 -91 3106 31 
Q 2978 153 2931 403 
Q 2775 156 2548 32 
Q 2322 -91 2016 -91 
Q 1697 -91 1473 31 
Q 1250 153 1119 397 
L 1119 -1331 
L 544 -1331 
z
" id="DejaVuSans-3bc" transform="scale(0.015625)"/>
      </defs>
      <use xlink:href="#DejaVuSans-74"/>
      <use x="39.208984" xlink:href="#DejaVuSans-69"/>
      <use x="66.992188" xlink:href="#DejaVuSans-6d"/>
      <use x="164.404297" xlink:href="#DejaVuSans-65"/>
      <use x="225.927734" xlink:href="#DejaVuSans-20"/>
      <use x="257.714844" xlink:href="#DejaVuSans-69"/>
      <use x="285.498047" xlink:href="#DejaVuSans-6e"/>
      <use x="348.876953" xlink:href="#DejaVuSans-20"/>
      <use x="380.664062" xlink:href="#DejaVuSans-3bc"/>
      <use x="444.287109" xlink:href="#DejaVuSans-73"/>
     </g>
    </g>
   </g>
   <g id="patch_28">
    <path d="M 53.328125 256.303436 
L 53.328125 35.7555 
" style="fill:none;stroke:#000000;stroke-linecap:square;stroke-linejoin:miter;stroke-width:0.8;"/>
   </g>
   <g id="patch_29">
    <path d="M 446.158125 256.303436 
L 446.158125 35.7555 
" style="fill:none;stroke:#000000;stroke-linecap:square;stroke-linejoin:miter;stroke-width:0.8;"/>
   </g>
   <g id="patch_30">
    <path d="M 53.328125 256.303436 
L 446.158125 256.303436 
" style="fill:none;stroke:#000000;stroke-linecap:square;stroke-linejoin:miter;stroke-width:0.8;"/>
   </g>
   <g id="patch_31">
    <path d="M 53.328125 35.7555 
L 446.158125 35.7555 
" style="fill:none;stroke:#000000;stroke-linecap:square;stroke-linejoin:miter;stroke-width:0.8;"/>
   </g>
   <g id="text_16">
    <!-- local alignment with linear gap cost -->
    <g transform="translate(142.471563 16.318125)scale(0.12 -0.12)">
     <defs>
      <path d="M 269 3500 
L 844 3500 
L 1563 769 
L 2278 3500 
L 2956 3500 
L 3675 769 
L 4391 3500 
L 4966 3500 
L 4050 0 
L 3372 0 
L 2619 2869 
L 1863 0 
L 1184 0 
L 269 3500 
z
" id="DejaVuSans-77" transform="scale(0.015625)"/>
      <path d="M 3513 2113 
L 3513 0 
L 2938 0 
L 2938 2094 
Q 2938 2591 2744 2837 
Q 2550 3084 2163 3084 
Q 1697 3084 1428 2787 
Q 1159 2491 1159 1978 
L 1159 0 
L 581 0 
L 581 4863 
L 1159 4863 
L 1159 2956 
Q 1366 3272 1645 3428 
Q 1925 3584 2291 3584 
Q 2894 3584 3203 3211 
Q 3513 2838 3513 2113 
z
" id="DejaVuSans-68" transform="scale(0.015625)"/>
     </defs>
     <use xlink:href="#DejaVuSans-6c"/>
     <use x="27.783203" xlink:href="#DejaVuSans-6f"/>
     <use x="88.964844" xlink:href="#DejaVuSans-63"/>
     <use x="143.945312" xlink:href="#DejaVuSans-61"/>
     <use x="205.224609" xlink:href="#DejaVuSans-6c"/>
     <use x="233.007812" xlink:href="#DejaVuSans-20"/>
     <use x="264.794922" xlink:href="#DejaVuSans-61"/>
     <use x="326.074219" xlink:href="#DejaVuSans-6c"/>
     <use x="353.857422" xlink:href="#DejaVuSans-69"/>
     <use x="381.640625" xlink:href="#DejaVuSans-67"/>
     <use x="445.117188" xlink:href="#DejaVuSans-6e"/>
     <use x="508.496094" xlink:href="#DejaVuSans-6d"/>
     <use x="605.908203" xlink:href="#DejaVuSans-65"/>
     <use x="667.431641" xlink:href="#DejaVuSans-6e"/>
     <use x="730.810547" xlink:href="#DejaVuSans-74"/>
     <use x="770.019531" xlink:href="#DejaVuSans-20"/>
     <use x="801.806641" xlink:href="#DejaVuSans-77"/>
     <use x="883.59375" xlink:href="#DejaVuSans-69"/>
     <use x="911.376953" xlink:href="#DejaVuSans-74"/>
     <use x="950.585938" xlink:href="#DejaVuSans-68"/>
     <use x="1013.964844" xlink:href="#DejaVuSans-20"/>
     <use x="1045.751953" xlink:href="#DejaVuSans-6c"/>
     <use x="1073.535156" xlink:href="#DejaVuSans-69"/>
     <use x="1101.318359" xlink:href="#DejaVuSans-6e"/>
     <use x="1164.697266" xlink:href="#DejaVuSans-65"/>
     <use x="1226.220703" xlink:href="#DejaVuSans-61"/>
     <use x="1287.5" xlink:href="#DejaVuSans-72"/>
     <use x="1328.613281" xlink:href="#DejaVuSans-20"/>
     <use x="1360.400391" xlink:href="#DejaVuSans-67"/>
     <use x="1423.876953" xlink:href="#DejaVuSans-61"/>
     <use x="1485.15625" xlink:href="#DejaVuSans-70"/>
     <use x="1548.632812" xlink:href="#DejaVuSans-20"/>
     <use x="1580.419922" xlink:href="#DejaVuSans-63"/>
     <use x="1635.400391" xlink:href="#DejaVuSans-6f"/>
     <use x="1696.582031" xlink:href="#DejaVuSans-73"/>
     <use x="1748.681641" xlink:href="#DejaVuSans-74"/>
    </g>
    <!-- sequence length = 20 -->
    <g transform="translate(183.320312 29.7555)scale(0.12 -0.12)">
     <defs>
      <path d="M 947 1747 
Q 947 1113 1208 752 
Q 1469 391 1925 391 
Q 2381 391 2643 752 
Q 2906 1113 2906 1747 
Q 2906 2381 2643 2742 
Q 2381 3103 1925 3103 
Q 1469 3103 1208 2742 
Q 947 2381 947 1747 
z
M 2906 525 
Q 2725 213 2448 61 
Q 2172 -91 1784 -91 
Q 1150 -91 751 415 
Q 353 922 353 1747 
Q 353 2572 751 3078 
Q 1150 3584 1784 3584 
Q 2172 3584 2448 3432 
Q 2725 3281 2906 2969 
L 2906 3500 
L 3481 3500 
L 3481 -1331 
L 2906 -1331 
L 2906 525 
z
" id="DejaVuSans-71" transform="scale(0.015625)"/>
      <path d="M 678 2906 
L 4684 2906 
L 4684 2381 
L 678 2381 
L 678 2906 
z
M 678 1631 
L 4684 1631 
L 4684 1100 
L 678 1100 
L 678 1631 
z
" id="DejaVuSans-3d" transform="scale(0.015625)"/>
     </defs>
     <use xlink:href="#DejaVuSans-73"/>
     <use x="52.099609" xlink:href="#DejaVuSans-65"/>
     <use x="113.623047" xlink:href="#DejaVuSans-71"/>
     <use x="177.099609" xlink:href="#DejaVuSans-75"/>
     <use x="240.478516" xlink:href="#DejaVuSans-65"/>
     <use x="302.001953" xlink:href="#DejaVuSans-6e"/>
     <use x="365.380859" xlink:href="#DejaVuSans-63"/>
     <use x="420.361328" xlink:href="#DejaVuSans-65"/>
     <use x="481.884766" xlink:href="#DejaVuSans-20"/>
     <use x="513.671875" xlink:href="#DejaVuSans-6c"/>
     <use x="541.455078" xlink:href="#DejaVuSans-65"/>
     <use x="602.978516" xlink:href="#DejaVuSans-6e"/>
     <use x="666.357422" xlink:href="#DejaVuSans-67"/>
     <use x="729.833984" xlink:href="#DejaVuSans-74"/>
     <use x="769.042969" xlink:href="#DejaVuSans-68"/>
     <use x="832.421875" xlink:href="#DejaVuSans-20"/>
     <use x="864.208984" xlink:href="#DejaVuSans-3d"/>
     <use x="947.998047" xlink:href="#DejaVuSans-20"/>
     <use x="979.785156" xlink:href="#DejaVuSans-32"/>
     <use x="1043.408203" xlink:href="#DejaVuSans-30"/>
    </g>
   </g>
   <g id="legend_1">
    <g id="patch_32">
     <path d="M 278.820625 117.146125 
L 439.158125 117.146125 
Q 441.158125 117.146125 441.158125 115.146125 
L 441.158125 42.7555 
Q 441.158125 40.7555 439.158125 40.7555 
L 278.820625 40.7555 
Q 276.820625 40.7555 276.820625 42.7555 
L 276.820625 115.146125 
Q 276.820625 117.146125 278.820625 117.146125 
z
" style="fill:#ffffff;opacity:0.8;stroke:#cccccc;stroke-linejoin:miter;"/>
    </g>
    <g id="patch_33">
     <path d="M 280.820625 52.353937 
L 300.820625 52.353937 
L 300.820625 45.353937 
L 280.820625 45.353937 
z
" style="fill:#8dd3c7;"/>
    </g>
    <g id="text_17">
     <!-- pure python -->
     <g transform="translate(308.820625 52.353937)scale(0.1 -0.1)">
      <defs>
       <path d="M 2059 -325 
Q 1816 -950 1584 -1140 
Q 1353 -1331 966 -1331 
L 506 -1331 
L 506 -850 
L 844 -850 
Q 1081 -850 1212 -737 
Q 1344 -625 1503 -206 
L 1606 56 
L 191 3500 
L 800 3500 
L 1894 763 
L 2988 3500 
L 3597 3500 
L 2059 -325 
z
" id="DejaVuSans-79" transform="scale(0.015625)"/>
      </defs>
      <use xlink:href="#DejaVuSans-70"/>
      <use x="63.476562" xlink:href="#DejaVuSans-75"/>
      <use x="126.855469" xlink:href="#DejaVuSans-72"/>
      <use x="165.71875" xlink:href="#DejaVuSans-65"/>
      <use x="227.242188" xlink:href="#DejaVuSans-20"/>
      <use x="259.029297" xlink:href="#DejaVuSans-70"/>
      <use x="322.505859" xlink:href="#DejaVuSans-79"/>
      <use x="381.685547" xlink:href="#DejaVuSans-74"/>
      <use x="420.894531" xlink:href="#DejaVuSans-68"/>
      <use x="484.273438" xlink:href="#DejaVuSans-6f"/>
      <use x="545.455078" xlink:href="#DejaVuSans-6e"/>
     </g>
    </g>
    <g id="patch_34">
     <path d="M 280.820625 67.032062 
L 300.820625 67.032062 
L 300.820625 60.032062 
L 280.820625 60.032062 
z
" style="fill:#fb8072;"/>
    </g>
    <g id="text_18">
     <!-- pyalign -->
     <g transform="translate(308.820625 67.032062)scale(0.1 -0.1)">
      <use xlink:href="#DejaVuSans-70"/>
      <use x="63.476562" xlink:href="#DejaVuSans-79"/>
      <use x="122.65625" xlink:href="#DejaVuSans-61"/>
      <use x="183.935547" xlink:href="#DejaVuSans-6c"/>
      <use x="211.71875" xlink:href="#DejaVuSans-69"/>
      <use x="239.501953" xlink:href="#DejaVuSans-67"/>
      <use x="302.978516" xlink:href="#DejaVuSans-6e"/>
     </g>
    </g>
    <g id="patch_35">
     <path d="M 280.820625 81.710187 
L 300.820625 81.710187 
L 300.820625 74.710187 
L 280.820625 74.710187 
z
" style="fill:#b3de69;"/>
    </g>
    <g id="text_19">
     <!-- pyalign +SIMD -->
     <g transform="translate(308.820625 81.710187)scale(0.1 -0.1)">
      <defs>
       <path d="M 2944 4013 
L 2944 2272 
L 4684 2272 
L 4684 1741 
L 2944 1741 
L 2944 0 
L 2419 0 
L 2419 1741 
L 678 1741 
L 678 2272 
L 2419 2272 
L 2419 4013 
L 2944 4013 
z
" id="DejaVuSans-2b" transform="scale(0.015625)"/>
       <path d="M 3425 4513 
L 3425 3897 
Q 3066 4069 2747 4153 
Q 2428 4238 2131 4238 
Q 1616 4238 1336 4038 
Q 1056 3838 1056 3469 
Q 1056 3159 1242 3001 
Q 1428 2844 1947 2747 
L 2328 2669 
Q 3034 2534 3370 2195 
Q 3706 1856 3706 1288 
Q 3706 609 3251 259 
Q 2797 -91 1919 -91 
Q 1588 -91 1214 -16 
Q 841 59 441 206 
L 441 856 
Q 825 641 1194 531 
Q 1563 422 1919 422 
Q 2459 422 2753 634 
Q 3047 847 3047 1241 
Q 3047 1584 2836 1778 
Q 2625 1972 2144 2069 
L 1759 2144 
Q 1053 2284 737 2584 
Q 422 2884 422 3419 
Q 422 4038 858 4394 
Q 1294 4750 2059 4750 
Q 2388 4750 2728 4690 
Q 3069 4631 3425 4513 
z
" id="DejaVuSans-53" transform="scale(0.015625)"/>
       <path d="M 628 4666 
L 1259 4666 
L 1259 0 
L 628 0 
L 628 4666 
z
" id="DejaVuSans-49" transform="scale(0.015625)"/>
       <path d="M 628 4666 
L 1569 4666 
L 2759 1491 
L 3956 4666 
L 4897 4666 
L 4897 0 
L 4281 0 
L 4281 4097 
L 3078 897 
L 2444 897 
L 1241 4097 
L 1241 0 
L 628 0 
L 628 4666 
z
" id="DejaVuSans-4d" transform="scale(0.015625)"/>
       <path d="M 1259 4147 
L 1259 519 
L 2022 519 
Q 2988 519 3436 956 
Q 3884 1394 3884 2338 
Q 3884 3275 3436 3711 
Q 2988 4147 2022 4147 
L 1259 4147 
z
M 628 4666 
L 1925 4666 
Q 3281 4666 3915 4102 
Q 4550 3538 4550 2338 
Q 4550 1131 3912 565 
Q 3275 0 1925 0 
L 628 0 
L 628 4666 
z
" id="DejaVuSans-44" transform="scale(0.015625)"/>
      </defs>
      <use xlink:href="#DejaVuSans-70"/>
      <use x="63.476562" xlink:href="#DejaVuSans-79"/>
      <use x="122.65625" xlink:href="#DejaVuSans-61"/>
      <use x="183.935547" xlink:href="#DejaVuSans-6c"/>
      <use x="211.71875" xlink:href="#DejaVuSans-69"/>
      <use x="239.501953" xlink:href="#DejaVuSans-67"/>
      <use x="302.978516" xlink:href="#DejaVuSans-6e"/>
      <use x="366.357422" xlink:href="#DejaVuSans-20"/>
      <use x="398.144531" xlink:href="#DejaVuSans-2b"/>
      <use x="481.933594" xlink:href="#DejaVuSans-53"/>
      <use x="545.410156" xlink:href="#DejaVuSans-49"/>
      <use x="574.902344" xlink:href="#DejaVuSans-4d"/>
      <use x="661.181641" xlink:href="#DejaVuSans-44"/>
     </g>
    </g>
    <g id="patch_36">
     <path d="M 280.820625 96.388312 
L 300.820625 96.388312 
L 300.820625 89.388312 
L 280.820625 89.388312 
z
" style="fill:#bc80bd;"/>
    </g>
    <g id="text_20">
     <!-- pyalign +encoded -->
     <g transform="translate(308.820625 96.388312)scale(0.1 -0.1)">
      <defs>
       <path d="M 2906 2969 
L 2906 4863 
L 3481 4863 
L 3481 0 
L 2906 0 
L 2906 525 
Q 2725 213 2448 61 
Q 2172 -91 1784 -91 
Q 1150 -91 751 415 
Q 353 922 353 1747 
Q 353 2572 751 3078 
Q 1150 3584 1784 3584 
Q 2172 3584 2448 3432 
Q 2725 3281 2906 2969 
z
M 947 1747 
Q 947 1113 1208 752 
Q 1469 391 1925 391 
Q 2381 391 2643 752 
Q 2906 1113 2906 1747 
Q 2906 2381 2643 2742 
Q 2381 3103 1925 3103 
Q 1469 3103 1208 2742 
Q 947 2381 947 1747 
z
" id="DejaVuSans-64" transform="scale(0.015625)"/>
      </defs>
      <use xlink:href="#DejaVuSans-70"/>
      <use x="63.476562" xlink:href="#DejaVuSans-79"/>
      <use x="122.65625" xlink:href="#DejaVuSans-61"/>
      <use x="183.935547" xlink:href="#DejaVuSans-6c"/>
      <use x="211.71875" xlink:href="#DejaVuSans-69"/>
      <use x="239.501953" xlink:href="#DejaVuSans-67"/>
      <use x="302.978516" xlink:href="#DejaVuSans-6e"/>
      <use x="366.357422" xlink:href="#DejaVuSans-20"/>
      <use x="398.144531" xlink:href="#DejaVuSans-2b"/>
      <use x="481.933594" xlink:href="#DejaVuSans-65"/>
      <use x="543.457031" xlink:href="#DejaVuSans-6e"/>
      <use x="606.835938" xlink:href="#DejaVuSans-63"/>
      <use x="661.816406" xlink:href="#DejaVuSans-6f"/>
      <use x="722.998047" xlink:href="#DejaVuSans-64"/>
      <use x="786.474609" xlink:href="#DejaVuSans-65"/>
      <use x="847.998047" xlink:href="#DejaVuSans-64"/>
     </g>
    </g>
    <g id="patch_37">
     <path d="M 280.820625 111.066437 
L 300.820625 111.066437 
L 300.820625 104.066437 
L 280.820625 104.066437 
z
" style="fill:#ffed6f;"/>
    </g>
    <g id="text_21">
     <!-- pyalign +encoded +SIMD -->
     <g transform="translate(308.820625 111.066437)scale(0.1 -0.1)">
      <use xlink:href="#DejaVuSans-70"/>
      <use x="63.476562" xlink:href="#DejaVuSans-79"/>
      <use x="122.65625" xlink:href="#DejaVuSans-61"/>
      <use x="183.935547" xlink:href="#DejaVuSans-6c"/>
      <use x="211.71875" xlink:href="#DejaVuSans-69"/>
      <use x="239.501953" xlink:href="#DejaVuSans-67"/>
      <use x="302.978516" xlink:href="#DejaVuSans-6e"/>
      <use x="366.357422" xlink:href="#DejaVuSans-20"/>
      <use x="398.144531" xlink:href="#DejaVuSans-2b"/>
      <use x="481.933594" xlink:href="#DejaVuSans-65"/>
      <use x="543.457031" xlink:href="#DejaVuSans-6e"/>
      <use x="606.835938" xlink:href="#DejaVuSans-63"/>
      <use x="661.816406" xlink:href="#DejaVuSans-6f"/>
      <use x="722.998047" xlink:href="#DejaVuSans-64"/>
      <use x="786.474609" xlink:href="#DejaVuSans-65"/>
      <use x="847.998047" xlink:href="#DejaVuSans-64"/>
      <use x="911.474609" xlink:href="#DejaVuSans-20"/>
      <use x="943.261719" xlink:href="#DejaVuSans-2b"/>
      <use x="1027.050781" xlink:href="#DejaVuSans-53"/>
      <use x="1090.527344" xlink:href="#DejaVuSans-49"/>
      <use x="1120.019531" xlink:href="#DejaVuSans-4d"/>
      <use x="1206.298828" xlink:href="#DejaVuSans-44"/>
     </g>
    </g>
   </g>
  </g>
 </g>
 <defs>
  <clipPath id="p95a700fb14">
   <rect height="220.547936" width="392.83" x="53.328125" y="35.7555"/>
  </clipPath>
 </defs>
</svg>
